<?xml version="1.0" encoding="utf-8"?>
<!-- Generator: Adobe Illustrator 16.0.0, SVG Export Plug-In . SVG Version: 6.00 Build 0)  -->
<!DOCTYPE svg PUBLIC "-//W3C//DTD SVG 1.1//EN" "http://www.w3.org/Graphics/SVG/1.1/DTD/svg11.dtd">
<svg version="1.1" id="Layer_1" xmlns="http://www.w3.org/2000/svg" xmlns:xlink="http://www.w3.org/1999/xlink" x="0px" y="0px"
	 width="1000px" height="600px" viewBox="0 0 1000 600" enable-background="new 0 0 1000 600" xml:space="preserve">
<g>
	<path fill="#1A1A1A" d="M839.969,445.259c-29.833,0-46.833-9.953-56.446-22.33l-3.353,22.33H471.741l0.006-0.083H281.811
		l2.87-19.272c-19.962,12.582-47.098,19.355-80.175,19.355H87.874l39.404-264.082h110.305c36.251,0,63.47,11.132,78.964,31.16
		l11.129-74.628h140.712l-27.486,183.436h49.357L523.691,97H971.99L917.39,334.146h-1.155c5.964,11.319,7.14,23.307,7.14,31.023
		C923.374,416.808,893.756,445.259,839.969,445.259"/>
	<path fill="#1A1A1A" d="M839.675,445.551c-29.833,0-46.832-9.952-56.445-22.329l-3.353,22.329H471.448l0.006-0.082H281.518
		l2.87-19.272c-19.962,12.582-47.098,19.354-80.176,19.354H87.581l39.404-264.081H237.29c36.252,0,63.47,11.131,78.964,31.16
		l11.129-74.628h140.712l-27.486,183.437h49.357l33.432-224.145h448.299l-54.601,237.146h-1.155
		c5.964,11.32,7.14,23.307,7.14,31.024C923.081,417.101,893.462,445.551,839.675,445.551"/>
	<path fill="#1A1A1A" d="M839.384,445.845c-29.834,0-46.833-9.953-56.446-22.33l-3.353,22.33h-308.43l0.006-0.083H281.225
		l2.871-19.273c-19.962,12.583-47.098,19.356-80.176,19.356H87.289l39.404-264.082h110.305c36.252,0,63.47,11.132,78.964,31.16
		l11.129-74.628h140.712L440.317,321.73h49.357l33.431-224.145h448.299l-54.6,237.146h-1.155c5.964,11.319,7.14,23.307,7.14,31.023
		C922.789,417.394,893.171,445.845,839.384,445.845"/>
	<path fill="#1A1A1A" d="M839.09,446.138c-29.833,0-46.833-9.953-56.446-22.33l-3.353,22.33H470.862l0.006-0.083H280.933
		l2.87-19.272c-19.963,12.581-47.098,19.355-80.176,19.355H86.995L126.4,182.055h110.305c36.251,0,63.47,11.132,78.964,31.161
		l11.129-74.629H467.51l-27.486,183.437h49.357l33.432-224.145h448.3l-54.602,237.147h-1.154c5.963,11.319,7.14,23.307,7.14,31.023
		C922.496,417.687,892.877,446.138,839.09,446.138"/>
	<path fill="#1A1A1A" d="M838.797,446.431c-29.833,0-46.833-9.954-56.446-22.33l-3.353,22.33H470.569l0.006-0.084H280.639
		l2.87-19.271c-19.962,12.582-47.098,19.355-80.175,19.355H86.703l39.404-264.083h110.305c36.251,0,63.47,11.132,78.964,31.16
		l11.129-74.628h140.712L439.73,322.316h49.358L522.52,98.171h448.3l-54.602,237.147h-1.155c5.964,11.319,7.14,23.306,7.14,31.023
		C922.202,417.979,892.584,446.431,838.797,446.431"/>
	<path fill="#1A1A1A" d="M838.505,446.724c-29.833,0-46.833-9.953-56.446-22.33l-3.353,22.33H470.277l0.005-0.083H280.347
		l2.87-19.272c-19.962,12.582-47.098,19.355-80.175,19.355H86.41l39.405-264.082h110.305c36.252,0,63.47,11.132,78.964,31.16
		l11.129-74.628h140.712l-27.486,183.436h49.357l33.432-224.145h448.298l-54.6,237.147h-1.156c5.964,11.319,7.14,23.307,7.14,31.023
		C921.909,418.272,892.292,446.724,838.505,446.724"/>
	<path fill="#1A1A1A" d="M838.212,447.017c-29.834,0-46.833-9.953-56.446-22.33l-3.354,22.33H469.984l0.006-0.083H280.054
		l2.87-19.272c-19.962,12.582-47.098,19.355-80.175,19.355H86.117l39.404-264.083h110.305c36.251,0,63.47,11.132,78.964,31.16
		l11.129-74.628h140.712l-27.486,183.437h49.357l33.432-224.145h448.298l-54.601,237.147h-1.155
		c5.964,11.319,7.14,23.307,7.14,31.023C921.616,418.565,891.998,447.017,838.212,447.017"/>
	<path fill="#1A1A1A" d="M837.918,447.309c-29.832,0-46.833-9.953-56.446-22.329l-3.353,22.329H469.691l0.005-0.083H279.761
		l2.87-19.271c-19.962,12.581-47.098,19.354-80.176,19.354H85.824l39.404-264.082h110.306c36.251,0,63.47,11.132,78.963,31.16
		l11.129-74.628h140.712l-27.486,183.436h49.357L521.642,99.05h448.298l-54.601,237.147h-1.155
		c5.965,11.319,7.141,23.307,7.141,31.022C921.324,418.857,891.705,447.309,837.918,447.309"/>
	<path fill="#1A1A1A" d="M837.625,447.602c-29.833,0-46.833-9.953-56.446-22.329l-3.352,22.329H469.398l0.005-0.083H279.468
		l2.87-19.272c-19.963,12.582-47.098,19.355-80.176,19.355H85.531l39.404-264.082H235.24c36.251,0,63.47,11.132,78.964,31.16
		l11.129-74.628h140.712l-27.486,183.436h49.357l33.432-224.145h448.299l-54.601,237.146h-1.155
		c5.964,11.32,7.141,23.307,7.141,31.023C921.031,419.15,891.413,447.602,837.625,447.602"/>
	<path fill="#1A1A1A" d="M837.332,447.895c-29.833,0-46.833-9.953-56.446-22.33l-3.353,22.33H469.105l0.005-0.083H279.175
		l2.87-19.272c-19.962,12.582-47.098,19.355-80.175,19.355H85.238l39.404-264.082h110.305c36.252,0,63.47,11.131,78.964,31.16
		l11.129-74.628h140.712L438.266,323.78h49.357l33.431-224.144h448.299l-54.6,237.146h-1.155
		c5.963,11.319,7.139,23.307,7.139,31.023C920.737,419.443,891.119,447.895,837.332,447.895"/>
	<path fill="#1A1A1A" d="M837.04,448.188c-29.833,0-46.833-9.953-56.446-22.33l-3.353,22.33H468.812l0.006-0.084H278.882
		l2.87-19.271c-19.962,12.582-47.098,19.355-80.175,19.355H84.945l39.404-264.083h110.305c36.252,0,63.47,11.131,78.964,31.16
		l11.129-74.628H465.46l-27.487,183.437h49.357l33.432-224.145h448.299l-54.601,237.147h-1.155
		c5.964,11.318,7.14,23.306,7.14,31.023C920.445,419.737,890.827,448.188,837.04,448.188"/>
	<path fill="#1A1A1A" d="M836.747,448.48c-29.833,0-46.833-9.953-56.446-22.329l-3.353,22.329H468.519l0.006-0.083H278.589
		l2.871-19.272c-19.963,12.582-47.098,19.355-80.176,19.355H84.652l39.404-264.082h110.305c36.251,0,63.47,11.132,78.964,31.16
		l11.129-74.628h140.712l-27.486,183.436h49.357l33.432-224.144h448.298l-54.6,237.146h-1.156
		c5.965,11.319,7.141,23.307,7.141,31.023C920.152,420.03,890.534,448.48,836.747,448.48"/>
	<path fill="#1A1A1A" d="M836.453,448.773c-29.832,0-46.833-9.953-56.445-22.33l-3.353,22.33H468.226l0.006-0.083H278.296
		l2.87-19.272c-19.963,12.582-47.098,19.355-80.176,19.355H84.359l39.404-264.082h110.305c36.252,0,63.47,11.132,78.964,31.161
		l11.129-74.629h140.712l-27.486,183.436h49.357l33.432-224.145h448.299l-54.602,237.146h-1.154
		c5.963,11.319,7.14,23.307,7.14,31.023C919.859,420.322,890.241,448.773,836.453,448.773"/>
	<path fill="#1A1A1A" d="M836.161,449.066c-29.833,0-46.833-9.953-56.446-22.33l-3.353,22.33H467.934l0.006-0.083H278.003
		l2.87-19.272c-19.962,12.582-47.098,19.355-80.175,19.355H84.066l39.404-264.082h110.305c36.251,0,63.47,11.132,78.964,31.161
		l11.129-74.628h140.712l-27.486,183.437h49.357l33.432-224.145h448.299l-54.601,237.147h-1.155
		c5.964,11.318,7.14,23.306,7.14,31.022C919.566,420.616,889.948,449.066,836.161,449.066"/>
	<path fill="#1A1A1A" d="M835.868,449.359c-29.833,0-46.833-9.953-56.446-22.33l-3.353,22.33H467.641l0.006-0.083H277.71
		l2.87-19.272c-19.962,12.582-47.098,19.355-80.175,19.355H83.773l39.404-264.082h110.306c36.251,0,63.47,11.132,78.964,31.16
		l11.129-74.628h140.712l-27.486,183.436h49.357l33.432-224.144H967.89l-54.601,237.146h-1.155
		c5.964,11.319,7.14,23.307,7.14,31.023C919.273,420.908,889.655,449.359,835.868,449.359"/>
	<path fill="#1A1A1A" d="M835.575,449.652c-29.833,0-46.833-9.953-56.446-22.33l-3.353,22.33H467.348l0.006-0.083H277.417
		l2.87-19.272c-19.962,12.582-47.098,19.355-80.175,19.355H83.48l39.404-264.082H233.19c36.251,0,63.47,11.132,78.964,31.16
		l11.129-74.628h140.712l-27.486,183.436h49.357l33.432-224.145h448.299L912.996,338.54h-1.155
		c5.964,11.319,7.14,23.307,7.14,31.023C918.98,421.201,889.362,449.652,835.575,449.652"/>
	<path fill="#1A1A1A" d="M835.282,449.945c-29.833,0-46.833-9.953-56.446-22.33l-3.353,22.33H467.055l0.006-0.083H277.125
		l2.87-19.272c-19.963,12.582-47.098,19.355-80.176,19.355H83.188l39.404-264.082h110.306c36.251,0,63.47,11.132,78.964,31.16
		l11.129-74.629h140.712l-27.486,183.437h49.358l33.432-224.145h448.299l-54.601,237.146h-1.155
		c5.964,11.319,7.14,23.307,7.14,31.023C918.688,421.494,889.069,449.945,835.282,449.945"/>
	<path fill="#1A1A1A" d="M834.988,450.238c-29.832,0-46.832-9.953-56.445-22.331l-3.353,22.331H466.762l0.006-0.083H276.831
		l2.87-19.272c-19.962,12.582-47.097,19.355-80.175,19.355H82.894l39.404-264.082h110.306c36.251,0,63.469,11.132,78.963,31.16
		l11.129-74.629h140.712l-27.486,183.437h49.357l33.432-224.145h448.299L912.41,339.126h-1.155
		c5.964,11.319,7.14,23.307,7.14,31.023C918.395,421.787,888.776,450.238,834.988,450.238"/>
	<path fill="#1A1A1A" d="M834.696,450.531c-29.833,0-46.833-9.953-56.446-22.33l-3.353,22.33H466.469l0.006-0.083H276.539
		l2.87-19.272c-19.962,12.582-47.097,19.355-80.175,19.355H82.602l39.404-264.082h110.306c36.251,0,63.469,11.132,78.964,31.16
		l11.129-74.628h140.712L435.63,326.417h49.357l33.432-224.145h448.299l-54.601,237.146h-1.155
		c5.964,11.319,7.14,23.307,7.14,31.023C918.102,422.08,888.483,450.531,834.696,450.531"/>
	<path fill="#1A1A1A" d="M834.403,450.824c-29.833,0-46.833-9.953-56.446-22.33l-3.353,22.33H466.176l0.006-0.083H276.246
		l2.87-19.272c-19.962,12.582-47.098,19.355-80.175,19.355H82.309l39.404-264.082h110.305c36.251,0,63.47,11.132,78.964,31.16
		l11.129-74.628h140.712L435.337,326.71h49.357l33.432-224.145h448.299l-54.601,237.147h-1.155
		c5.964,11.319,7.14,23.307,7.14,31.023C917.809,422.373,888.19,450.824,834.403,450.824"/>
	<path fill="#1A1A1A" d="M834.11,451.117c-29.833,0-46.833-9.953-56.446-22.331l-3.353,22.331H465.883l0.006-0.083H275.953
		l2.87-19.272c-19.962,12.581-47.098,19.355-80.175,19.355H82.016l39.404-264.083h110.305c36.252,0,63.47,11.132,78.964,31.161
		l11.129-74.629H462.53l-27.486,183.437h49.357l33.432-224.145h448.299l-54.601,237.146h-1.155c5.964,11.32,7.14,23.308,7.14,31.023
		C917.516,422.666,887.897,451.117,834.11,451.117"/>
	<path fill="#1A1A1A" d="M833.817,451.41c-29.832,0-46.833-9.953-56.446-22.33l-3.353,22.33H465.59l0.006-0.083H275.66l2.87-19.272
		c-19.962,12.582-47.098,19.355-80.175,19.355H81.723l39.404-264.082h110.305c36.251,0,63.47,11.132,78.964,31.16l11.129-74.628
		h140.712l-27.486,183.436h49.357l33.432-224.145h448.298l-54.6,237.146h-1.156c5.964,11.319,7.14,23.307,7.14,31.023
		C917.223,422.959,887.605,451.41,833.817,451.41"/>
	<path fill="#1A1A1A" d="M833.525,451.703c-29.834,0-46.833-9.953-56.446-22.33l-3.354,22.33H465.297l0.005-0.083H275.367
		l2.87-19.272c-19.962,12.582-47.097,19.355-80.175,19.355H81.43l39.404-264.083H231.14c36.251,0,63.47,11.132,78.963,31.16
		l11.129-74.628h140.712l-27.487,183.436h49.358l33.432-224.144h448.298l-54.601,237.147h-1.155
		c5.964,11.319,7.14,23.307,7.14,31.023C916.93,423.252,887.312,451.703,833.525,451.703"/>
	<path fill="#1A1A1A" d="M833.231,451.995c-29.833,0-46.833-9.952-56.446-22.33l-3.352,22.33H465.004l0.005-0.082H275.074
		l2.87-19.273c-19.962,12.583-47.098,19.355-80.176,19.355H81.137l39.404-264.082h110.306c36.251,0,63.47,11.132,78.964,31.16
		l11.129-74.628h140.712l-27.486,183.436h49.357l33.431-224.144h448.299l-54.601,237.146h-1.155
		c5.964,11.32,7.14,23.307,7.14,31.024C916.637,423.545,887.019,451.995,833.231,451.995"/>
	<path fill="#1A1A1A" d="M832.938,452.289c-29.833,0-46.833-9.954-56.446-22.331l-3.353,22.331H464.711l0.005-0.084H274.781
		l2.871-19.271c-19.963,12.581-47.098,19.355-80.176,19.355H80.844l39.404-264.083h110.306c36.251,0,63.47,11.132,78.963,31.16
		l11.129-74.628h140.712l-27.487,183.436h49.357l33.432-224.145H964.96l-54.601,237.147h-1.155
		c5.964,11.319,7.14,23.306,7.14,31.022C916.344,423.837,886.726,452.289,832.938,452.289"/>
	<path fill="#1A1A1A" d="M832.646,452.581c-29.833,0-46.833-9.953-56.446-22.33l-3.353,22.33H464.418l0.006-0.083H274.488
		l2.87-19.272c-19.962,12.582-47.098,19.355-80.176,19.355H80.551l39.404-264.082h110.306c36.251,0,63.469,11.132,78.964,31.161
		l11.129-74.629h140.712l-27.486,183.436h49.357l33.432-224.144h448.299l-54.601,237.146h-1.155
		c5.964,11.319,7.14,23.307,7.14,31.023C916.051,424.13,886.433,452.581,832.646,452.581"/>
	<path fill="#1A1A1A" d="M832.354,452.875c-29.833,0-46.834-9.953-56.446-22.331l-3.353,22.331H464.125l0.006-0.083H274.195
		l2.87-19.273c-19.962,12.582-47.097,19.356-80.175,19.356H80.259l39.404-264.083h110.306c36.251,0,63.47,11.132,78.963,31.16
		l11.129-74.628h140.712L433.287,328.76h49.357l33.432-224.144h448.299l-54.601,237.146h-1.155
		c5.964,11.319,7.139,23.308,7.139,31.024C915.758,424.424,886.141,452.875,832.354,452.875"/>
	<path fill="#1A1A1A" d="M832.061,453.167c-29.833,0-46.833-9.953-56.447-22.33l-3.352,22.33H463.833l0.006-0.083H273.902
		l2.87-19.271c-19.962,12.581-47.098,19.354-80.175,19.354H79.965l39.404-264.082h110.305c36.252,0,63.47,11.131,78.964,31.16
		l11.129-74.628h140.712l-27.486,183.436h49.358l33.432-224.144h448.298L909.48,342.055h-1.154
		c5.963,11.319,7.14,23.307,7.14,31.023C915.466,424.716,885.848,453.167,832.061,453.167"/>
	<path fill="#1A1A1A" d="M831.768,453.46c-29.834,0-46.834-9.953-56.446-22.33l-3.354,22.33H463.54l0.006-0.083H273.609l2.87-19.272
		c-19.962,12.582-47.098,19.355-80.175,19.355H79.672l39.405-264.082h110.305c36.251,0,63.47,11.131,78.964,31.16l11.129-74.628
		h140.712L432.7,329.346h49.358l33.431-224.144h448.299l-54.601,237.146h-1.155c5.965,11.319,7.14,23.307,7.14,31.023
		C915.172,425.009,885.555,453.46,831.768,453.46"/>
	<path fill="#1A1A1A" d="M831.475,453.753c-29.833,0-46.833-9.953-56.446-22.33l-3.353,22.33H463.247l0.006-0.083H273.317
		l2.87-19.272c-19.962,12.583-47.098,19.355-80.175,19.355H79.38l39.404-264.082h110.305c36.252,0,63.47,11.132,78.964,31.161
		l11.129-74.628h140.712L432.408,329.64h49.357l33.432-224.145h448.299l-54.601,237.146h-1.155
		c5.964,11.319,7.14,23.307,7.14,31.023C914.88,425.302,885.262,453.753,831.475,453.753"/>
	<path fill="#1A1A1A" d="M831.182,454.046c-29.833,0-46.833-9.953-56.446-22.33l-3.353,22.33H462.954l0.006-0.083H273.023
		l2.871-19.272c-19.962,12.582-47.098,19.355-80.175,19.355H79.087l39.404-264.082h110.305c36.251,0,63.47,11.132,78.964,31.161
		l11.129-74.629h140.712l-27.486,183.436h49.357l33.432-224.144h448.299l-54.601,237.146h-1.155
		c5.964,11.319,7.14,23.307,7.14,31.023C914.587,425.595,884.969,454.046,831.182,454.046"/>
	<path fill="#1A1A1A" d="M830.889,454.339c-29.833,0-46.833-9.953-56.446-22.33l-3.353,22.33H462.661l0.006-0.083H272.731
		l2.87-19.272c-19.962,12.582-47.098,19.355-80.175,19.355H78.794l39.404-264.082h110.305c36.252,0,63.47,11.132,78.964,31.16
		l11.129-74.628h140.712l-27.487,183.436h49.357l33.432-224.145H962.91L908.31,343.227h-1.155
		c5.964,11.319,7.139,23.307,7.139,31.023C914.293,425.888,884.676,454.339,830.889,454.339"/>
	<path fill="#1A1A1A" d="M830.596,454.632c-29.833,0-46.833-9.953-56.446-22.33l-3.353,22.33H462.368l0.006-0.083H272.438
		l2.87-19.272c-19.962,12.582-47.098,19.355-80.175,19.355H78.501l39.404-264.082H228.21c36.252,0,63.47,11.132,78.964,31.16
		l11.129-74.628h140.713l-27.486,183.436h49.357l33.432-224.145h448.299L908.017,343.52h-1.155
		c5.964,11.319,7.14,23.307,7.14,31.023C914.001,426.181,884.383,454.632,830.596,454.632"/>
	<path fill="#1A1A1A" d="M830.303,454.925c-29.833,0-46.834-9.954-56.447-22.33l-3.352,22.33H462.075l0.006-0.083H272.145
		l2.87-19.272c-19.962,12.581-47.098,19.355-80.175,19.355H78.208l39.404-264.082h110.305c36.251,0,63.47,11.132,78.964,31.16
		l11.129-74.628h140.712l-27.486,183.436h49.357l33.432-224.145h448.299l-54.602,237.147h-1.154
		c5.964,11.319,7.139,23.307,7.139,31.023C913.707,426.474,884.09,454.925,830.303,454.925"/>
	<path fill="#1A1A1A" d="M830.01,455.218c-29.833,0-46.833-9.953-56.446-22.33l-3.353,22.33H461.782l0.006-0.083H271.853
		l2.87-19.272c-19.962,12.582-47.098,19.355-80.175,19.355H77.915l39.404-264.082h110.305c36.251,0,63.47,11.132,78.964,31.16
		l11.129-74.628H458.43l-27.486,183.436h49.357l33.432-224.145h448.299l-54.601,237.146h-1.155
		c5.964,11.319,7.14,23.307,7.14,31.023C913.415,426.767,883.797,455.218,830.01,455.218"/>
	<path fill="#1A1A1A" d="M829.717,455.511c-29.833,0-46.833-9.953-56.446-22.33l-3.353,22.33H461.489l0.006-0.083H271.559
		l2.871-19.272c-19.963,12.582-47.098,19.355-80.176,19.355H77.622l39.404-264.082h110.305c36.251,0,63.47,11.132,78.964,31.16
		l11.129-74.629h140.712L430.65,331.396h49.357l33.432-224.145h448.299l-54.601,237.147h-1.155
		c5.964,11.319,7.14,23.307,7.14,31.023C913.122,427.06,883.504,455.511,829.717,455.511"/>
	<path fill="#1A1A1A" d="M829.424,455.803c-29.833,0-46.833-9.952-56.446-22.329l-3.353,22.329H461.196l0.006-0.082H271.266
		l2.871-19.272c-19.962,12.582-47.098,19.354-80.175,19.354H77.329l39.404-264.081h110.305c36.251,0,63.47,11.131,78.964,31.16
		l11.129-74.628h140.712l-27.486,183.437h49.357l33.432-224.145h448.299l-54.601,237.147h-1.155
		c5.964,11.319,7.14,23.307,7.14,31.023C912.829,427.352,883.211,455.803,829.424,455.803"/>
	<path fill="#1A1A1A" d="M829.131,456.097c-29.832,0-46.833-9.953-56.446-22.33l-3.353,22.33H460.903l0.006-0.083H270.974
		l2.87-19.272c-19.963,12.582-47.098,19.355-80.176,19.355H77.037l39.404-264.082h110.305c36.251,0,63.47,11.132,78.963,31.16
		l11.129-74.628h140.712l-27.486,183.436h49.358l33.431-224.145h448.299l-54.601,237.146h-1.155
		c5.964,11.319,7.14,23.307,7.14,31.023C912.536,427.646,882.918,456.097,829.131,456.097"/>
	<path fill="#1A1A1A" d="M828.838,456.39c-29.833,0-46.833-9.953-56.446-22.33l-3.353,22.33H460.61l0.006-0.083H270.681l2.87-19.272
		c-19.963,12.582-47.098,19.355-80.176,19.355H76.743l39.404-264.083h110.306c36.251,0,63.47,11.132,78.964,31.161l11.129-74.628
		h140.712l-27.486,183.436h49.357l33.432-224.145h448.299l-54.601,237.146h-1.155c5.965,11.319,7.14,23.307,7.14,31.023
		C912.243,427.938,882.625,456.39,828.838,456.39"/>
	<path fill="#1A1A1A" d="M828.545,456.683c-29.833,0-46.833-9.953-56.446-22.33l-3.353,22.33H460.318l0.005-0.083H270.387
		l2.871-19.272c-19.963,12.581-47.098,19.355-80.176,19.355H76.45L115.854,192.6H226.16c36.251,0,63.47,11.132,78.963,31.16
		l11.129-74.628h140.712l-27.486,183.437h49.357l33.432-224.145h448.299L905.966,345.57h-1.155
		c5.964,11.319,7.14,23.307,7.14,31.023C911.95,428.23,882.332,456.683,828.545,456.683"/>
	<path fill="#1A1A1A" d="M828.252,456.975c-29.832,0-46.833-9.953-56.446-22.329l-3.353,22.329H460.024l0.006-0.082H270.095
		l2.87-19.273c-19.963,12.582-47.098,19.355-80.176,19.355H76.157l39.404-264.082h110.305c36.251,0,63.47,11.131,78.964,31.16
		l11.128-74.628h140.712l-27.486,183.437h49.357l33.432-224.146h448.299l-54.601,237.147h-1.155
		c5.964,11.318,7.14,23.307,7.14,31.023C911.657,428.523,882.039,456.975,828.252,456.975"/>
	<path fill="#1A1A1A" d="M827.959,457.268c-29.833,0-46.833-9.953-56.446-22.33l-3.353,22.33H459.731l0.006-0.083H269.801
		l2.87-19.272c-19.962,12.582-47.098,19.355-80.175,19.355H75.864l39.404-264.082h110.305c36.251,0,63.47,11.132,78.964,31.16
		l11.129-74.628h140.712l-27.486,183.436h49.357l33.432-224.145H959.98L905.38,346.155h-1.155c5.964,11.319,7.14,23.307,7.14,31.023
		C911.364,428.816,881.746,457.268,827.959,457.268"/>
	<path fill="#1A1A1A" d="M827.666,457.561c-29.832,0-46.832-9.953-56.445-22.33l-3.354,22.33H459.439l0.005-0.082H269.509
		l2.87-19.273c-19.962,12.583-47.098,19.355-80.175,19.355H75.572l39.404-264.082h110.305c36.252,0,63.47,11.132,78.964,31.16
		l11.129-74.628h140.712L428.6,333.446h49.357l33.431-224.144h448.299l-54.6,237.146h-1.156c5.965,11.319,7.141,23.308,7.141,31.024
		C911.072,429.109,881.454,457.561,827.666,457.561"/>
	<path fill="#1A1A1A" d="M827.373,457.854c-29.832,0-46.833-9.953-56.446-22.33l-3.353,22.33H459.146l0.006-0.082H269.216
		l2.87-19.273c-19.963,12.582-47.098,19.355-80.175,19.355H75.279l39.404-264.082h110.305c36.251,0,63.47,11.132,78.964,31.16
		l11.129-74.628h140.712l-27.487,183.436h49.358l33.431-224.144h448.299l-54.601,237.147h-1.155
		c5.964,11.318,7.14,23.306,7.14,31.022C910.778,429.402,881.16,457.854,827.373,457.854"/>
	<path fill="#1A1A1A" d="M827.08,458.146c-29.833,0-46.832-9.953-56.446-22.33l-3.353,22.33H458.853l0.006-0.083H268.923
		l2.87-19.272c-19.962,12.582-47.098,19.355-80.175,19.355H74.985l39.405-264.082h110.305c36.251,0,63.47,11.131,78.964,31.16
		l11.129-74.628H455.5l-27.486,183.436h49.357l33.431-224.144h448.299l-54.6,237.146h-1.155c5.963,11.319,7.14,23.307,7.14,31.023
		C910.486,429.695,880.867,458.146,827.08,458.146"/>
	<path fill="#1A1A1A" d="M826.788,458.44c-29.833,0-46.833-9.954-56.446-22.331l-3.353,22.331H458.56l0.006-0.083H268.63
		l2.87-19.273c-19.962,12.582-47.097,19.356-80.175,19.356H74.693l39.404-264.082h110.306c36.251,0,63.47,11.132,78.964,31.16
		l11.128-74.629h140.712l-27.486,183.437h49.357l33.432-224.145H958.81l-54.601,237.146h-1.155
		c5.964,11.319,7.14,23.308,7.14,31.024C910.193,429.989,880.575,458.44,826.788,458.44"/>
	<path fill="#1A1A1A" d="M826.495,458.732c-29.833,0-46.833-9.953-56.446-22.33l-3.353,22.33H458.267l0.006-0.082H268.337
		l2.87-19.273c-19.962,12.582-47.097,19.355-80.175,19.355H74.4l39.404-264.082H224.11c36.251,0,63.469,11.131,78.963,31.16
		l11.129-74.628h140.713l-27.487,183.436h49.358l33.432-224.144h448.298l-54.6,237.146h-1.155c5.964,11.319,7.14,23.308,7.14,31.023
		C909.9,430.281,880.281,458.732,826.495,458.732"/>
	<path fill="#1A1A1A" d="M826.201,459.025c-29.832,0-46.832-9.953-56.445-22.33l-3.353,22.33H457.975l0.006-0.083H268.044
		l2.871-19.272c-19.963,12.582-47.098,19.355-80.176,19.355H74.107l39.404-264.082h110.305c36.252,0,63.47,11.132,78.964,31.16
		l11.129-74.628h140.712l-27.486,183.436h49.357l33.431-224.145h448.299l-54.6,237.146h-1.155c5.964,11.319,7.14,23.307,7.14,31.023
		C909.607,430.574,879.989,459.025,826.201,459.025"/>
	<path fill="#1A1A1A" d="M825.909,459.318c-29.833,0-46.834-9.953-56.446-22.33l-3.353,22.33H457.682l0.005-0.083H267.751
		l2.871-19.272c-19.963,12.582-47.098,19.355-80.176,19.355H73.814l39.404-264.082h110.305c36.251,0,63.47,11.132,78.964,31.16
		l11.129-74.629h140.712l-27.486,183.437H476.2l33.431-224.145H957.93l-54.6,237.146h-1.156c5.964,11.319,7.14,23.307,7.14,31.023
		C909.313,430.867,879.696,459.318,825.909,459.318"/>
	<path fill="#1A1A1A" d="M825.615,459.611c-29.832,0-46.832-9.953-56.446-22.33l-3.353,22.33H457.388l0.006-0.083H267.458
		l2.87-19.272c-19.962,12.582-47.098,19.355-80.175,19.355H73.521l39.404-264.083H223.23c36.251,0,63.47,11.132,78.964,31.161
		l11.129-74.629h140.712l-27.487,183.437h49.358l33.432-224.145h448.298l-54.601,237.147h-1.155
		c5.965,11.319,7.141,23.307,7.141,31.023C909.021,431.16,879.402,459.611,825.615,459.611"/>
	<path fill="#1A1A1A" d="M825.323,459.904c-29.833,0-46.833-9.953-56.446-22.33l-3.353,22.33H457.096l0.006-0.083H267.166
		l2.87-19.272c-19.962,12.582-47.098,19.355-80.175,19.355H73.229l39.404-264.082h110.305c36.251,0,63.47,11.132,78.964,31.16
		l11.129-74.628h140.712L426.257,335.79h49.357l33.432-224.145h448.299l-54.601,237.146h-1.155
		c5.964,11.319,7.14,23.307,7.14,31.023C908.729,431.453,879.11,459.904,825.323,459.904"/>
	<path fill="#1A1A1A" d="M825.03,460.197c-29.833,0-46.833-9.953-56.446-22.33l-3.353,22.33H456.803l0.006-0.083H266.872
		l2.871-19.272c-19.962,12.582-47.098,19.355-80.175,19.355H72.936l39.404-264.082h110.305c36.251,0,63.469,11.132,78.964,31.16
		l11.129-74.628H453.45l-27.486,183.436h49.357l33.432-224.145h448.299l-54.601,237.146h-1.155
		c5.964,11.319,7.14,23.307,7.14,31.023C908.436,431.746,878.817,460.197,825.03,460.197"/>
	<path fill="#1A1A1A" d="M824.736,460.489c-29.832,0-46.832-9.952-56.445-22.329l-3.353,22.329H456.509l0.006-0.083H266.58
		l2.87-19.271c-19.962,12.582-47.097,19.354-80.175,19.354H72.642l39.405-264.081h110.305c36.251,0,63.47,11.132,78.963,31.16
		l11.129-74.628h140.712L425.67,336.376h49.357l33.431-224.145h448.3l-54.601,237.146h-1.155c5.964,11.32,7.14,23.307,7.14,31.024
		C908.143,432.039,878.524,460.489,824.736,460.489"/>
	<path fill="#1A1A1A" d="M824.444,460.783c-29.833,0-46.833-9.953-56.446-22.33l-3.353,22.33H456.217l0.006-0.084H266.287
		l2.87-19.271c-19.962,12.582-47.097,19.355-80.175,19.355H72.35l39.404-264.082H222.06c36.251,0,63.47,11.131,78.963,31.16
		l11.129-74.629h140.712l-27.486,183.437h49.357l33.432-224.145h448.299l-54.601,237.146h-1.155
		c5.964,11.319,7.14,23.307,7.14,31.023C907.85,432.332,878.231,460.783,824.444,460.783"/>
	<path fill="#1A1A1A" d="M824.151,461.076c-29.833,0-46.833-9.953-56.446-22.33l-3.352,22.33h-308.43l0.006-0.083H265.994
		l2.87-19.272c-19.962,12.582-47.098,19.355-80.176,19.355H72.057l39.404-264.082h110.306c36.251,0,63.47,11.132,78.964,31.16
		l11.129-74.628h140.712l-27.486,183.436h49.357l33.433-224.145h448.298l-54.601,237.146h-1.155
		c5.964,11.319,7.14,23.307,7.14,31.023C907.557,432.625,877.938,461.076,824.151,461.076"/>
	<path fill="#1A1A1A" d="M823.858,461.369c-29.833,0-46.833-9.953-56.446-22.33l-3.353,22.33H455.631l0.006-0.084H265.701
		l2.87-19.271c-19.962,12.582-47.097,19.355-80.175,19.355H71.764l39.404-264.083h110.306c36.251,0,63.469,11.132,78.964,31.16
		l11.128-74.628h140.712l-27.486,183.436h49.357l33.432-224.144H955.88l-54.601,237.146h-1.155
		c5.964,11.319,7.14,23.307,7.14,31.022C907.264,432.918,877.646,461.369,823.858,461.369"/>
	<path fill="#1A1A1A" d="M823.565,461.661c-29.833,0-46.833-9.953-56.446-22.33l-3.353,22.33H455.338l0.006-0.083H265.408
		l2.87-19.272c-19.962,12.583-47.097,19.355-80.175,19.355H71.471l39.404-264.082h110.306c36.251,0,63.47,11.132,78.963,31.161
		l11.129-74.628h140.712l-27.486,183.436h49.357l33.432-224.145h448.299l-54.601,237.146h-1.155
		c5.964,11.319,7.14,23.307,7.14,31.023C906.971,433.211,877.353,461.661,823.565,461.661"/>
	<path fill="#1A1A1A" d="M823.272,461.955c-29.833,0-46.833-9.953-56.446-22.33l-3.353,22.33H455.045l0.006-0.084H265.115
		l2.87-19.272c-19.962,12.583-47.097,19.356-80.175,19.356H71.178l39.404-264.083h110.306c36.251,0,63.47,11.132,78.963,31.16
		l11.129-74.628h140.712l-27.486,183.437h49.357l33.432-224.145h448.299l-54.601,237.146h-1.154
		c5.963,11.319,7.139,23.307,7.139,31.024C906.678,433.504,877.061,461.955,823.272,461.955"/>
	<path fill="#1A1A1A" d="M822.98,462.248c-29.833,0-46.833-9.953-56.446-22.33l-3.353,22.33H454.752l0.005-0.084H264.822
		l2.87-19.271c-19.962,12.582-47.098,19.355-80.175,19.355H70.885l39.405-264.082h110.305c36.251,0,63.47,11.132,78.964,31.16
		l11.129-74.629H451.4l-27.487,183.436h49.358l33.432-224.144h448.299L900.4,351.136h-1.154c5.963,11.319,7.14,23.306,7.14,31.023
		C906.386,433.797,876.768,462.248,822.98,462.248"/>
	<path fill="#1A1A1A" d="M822.687,462.541c-29.833,0-46.833-9.953-56.446-22.331l-3.353,22.331H454.459l0.006-0.084H264.529
		l2.87-19.272c-19.963,12.582-47.098,19.356-80.175,19.356H70.592l39.404-264.083h110.305c36.251,0,63.47,11.132,78.964,31.16
		l11.129-74.628h140.712L423.62,338.426h49.358l33.432-224.144h448.298l-54.601,237.146h-1.155
		c5.964,11.319,7.14,23.307,7.14,31.023C906.092,434.09,876.474,462.541,822.687,462.541"/>
	<path fill="#1A1A1A" d="M822.394,462.833c-29.833,0-46.833-9.953-56.446-22.33l-3.353,22.33H454.166l0.006-0.083H264.236
		l2.871-19.272c-19.963,12.582-47.098,19.355-80.176,19.355H70.299l39.404-264.082h110.305c36.251,0,63.47,11.132,78.964,31.16
		l11.128-74.628h140.712l-27.486,183.436h49.357l33.432-224.145h448.299l-54.601,237.146h-1.155
		c5.964,11.319,7.14,23.307,7.14,31.023C905.799,434.382,876.181,462.833,822.394,462.833"/>
	<path fill="#1A1A1A" d="M822.102,463.127c-29.833,0-46.834-9.954-56.447-22.33l-3.353,22.33H453.873l0.006-0.084H263.943
		l2.87-19.271c-19.962,12.582-47.098,19.355-80.175,19.355H70.006l39.404-264.083h110.306c36.251,0,63.47,11.131,78.964,31.16
		l11.129-74.628h140.712l-27.486,183.436h49.356l33.433-224.145h448.298l-54.601,237.146h-1.155
		c5.965,11.319,7.14,23.307,7.14,31.023C905.506,434.675,875.888,463.127,822.102,463.127"/>
	<path fill="#1A1A1A" d="M821.809,463.42c-29.833,0-46.834-9.953-56.446-22.331l-3.353,22.331H453.581l0.006-0.084H263.651
		l2.87-19.271c-19.963,12.582-47.098,19.355-80.175,19.355H69.714l39.404-264.082h110.305c36.252,0,63.47,11.131,78.964,31.16
		l11.129-74.628h140.712l-27.486,183.436H472.1l33.432-224.144H953.83l-54.601,237.146h-1.155
		c5.964,11.32,7.139,23.307,7.139,31.024C905.213,434.969,875.596,463.42,821.809,463.42"/>
	<path fill="#1A1A1A" d="M821.516,463.712c-29.833,0-46.833-9.953-56.447-22.33l-3.352,22.33h-308.43l0.007-0.083H263.357
		l2.87-19.271c-19.962,12.581-47.098,19.354-80.175,19.354H69.42l39.404-264.082H219.13c36.251,0,63.47,11.131,78.964,31.16
		l11.129-74.629h140.712l-27.486,183.436h49.357l33.432-224.145h448.298L898.936,352.6h-1.154c5.963,11.319,7.14,23.307,7.14,31.023
		C904.921,435.261,875.303,463.712,821.516,463.712"/>
	<path fill="#1A1A1A" d="M821.222,464.005c-29.833,0-46.833-9.953-56.446-22.33l-3.353,22.33H452.995l0.006-0.083H263.064
		l2.87-19.272c-19.963,12.582-47.098,19.355-80.175,19.355H69.127l39.404-264.082h110.306c36.251,0,63.47,11.132,78.964,31.16
		l11.129-74.628h140.712l-27.486,183.436h49.357l33.432-224.145h448.298l-54.601,237.146h-1.154
		c5.963,11.319,7.139,23.307,7.139,31.023C904.627,435.554,875.009,464.005,821.222,464.005"/>
	<path fill="#1A1A1A" d="M820.93,464.298c-29.833,0-46.834-9.953-56.447-22.33l-3.352,22.33H452.702l0.006-0.083H262.771
		l2.87-19.272c-19.962,12.582-47.098,19.355-80.175,19.355H68.835l39.404-264.082h110.305c36.252,0,63.47,11.132,78.964,31.16
		l11.129-74.628h140.712l-27.486,183.436h49.357l33.432-224.145h448.299l-54.601,237.146h-1.155
		c5.963,11.319,7.139,23.307,7.139,31.023C904.334,435.847,874.717,464.298,820.93,464.298"/>
	<path fill="#1A1A1A" d="M820.637,464.592c-29.833,0-46.833-9.954-56.446-22.331l-3.353,22.331H452.409l0.006-0.084H262.479
		l2.87-19.271c-19.962,12.581-47.098,19.355-80.175,19.355H68.542l39.404-264.083h110.305c36.251,0,63.47,11.132,78.964,31.16
		l11.129-74.628h140.712L421.57,340.477h49.357l33.432-224.145h448.299l-54.601,237.146h-1.155
		c5.964,11.319,7.14,23.307,7.14,31.023C904.042,436.14,874.424,464.592,820.637,464.592"/>
	<path fill="#1A1A1A" d="M820.344,464.884c-29.833,0-46.834-9.953-56.446-22.33l-3.353,22.33H452.116l0.006-0.083H262.187
		l2.869-19.272c-19.962,12.582-47.098,19.355-80.175,19.355H68.249l39.404-264.082h110.305c36.252,0,63.47,11.132,78.964,31.16
		l11.129-74.629h140.713L421.277,340.77h49.357l33.432-224.145h448.299l-54.601,237.146h-1.155
		c5.964,11.319,7.139,23.307,7.139,31.023C903.748,436.433,874.131,464.884,820.344,464.884"/>
	<path fill="#1A1A1A" d="M820.05,465.177c-29.832,0-46.832-9.953-56.446-22.331l-3.352,22.331H451.823l0.006-0.083H261.893
		l2.87-19.273c-19.962,12.583-47.098,19.356-80.175,19.356H67.956l39.403-264.082h110.306c36.252,0,63.47,11.131,78.964,31.16
		l11.129-74.629H448.47l-27.486,183.437h49.357l33.433-224.145h448.299l-54.602,237.147h-1.155
		c5.964,11.319,7.141,23.307,7.141,31.023C903.456,436.725,873.838,465.177,820.05,465.177"/>
	<path fill="#1A1A1A" d="M819.758,465.47c-29.833,0-46.833-9.954-56.446-22.33l-3.353,22.33H451.53l0.006-0.083H261.6l2.87-19.272
		c-19.962,12.582-47.097,19.355-80.175,19.355H67.663l39.404-264.082h110.305c36.251,0,63.47,11.132,78.963,31.16l11.129-74.628
		h140.713l-27.486,183.436h49.357l33.432-224.145h448.299l-54.601,237.146h-1.155c5.964,11.319,7.14,23.307,7.14,31.023
		C903.163,437.019,873.545,465.47,819.758,465.47"/>
	<path fill="#1A1A1A" d="M819.465,465.763c-29.832,0-46.833-9.953-56.446-22.33l-3.353,22.33H451.237l0.006-0.083H261.307
		l2.87-19.272c-19.962,12.582-47.097,19.355-80.175,19.355H67.37l39.404-264.082H217.08c36.251,0,63.47,11.132,78.963,31.16
		l11.129-74.628h140.712l-27.486,183.436h49.357l33.432-224.145h448.299L896.886,354.65h-1.155
		c5.964,11.319,7.141,23.307,7.141,31.023C902.871,437.312,873.252,465.763,819.465,465.763"/>
	<path fill="#1A1A1A" d="M819.172,466.055c-29.832,0-46.833-9.952-56.446-22.33l-3.353,22.33H450.944l0.006-0.082H261.015
		l2.87-19.273c-19.962,12.582-47.097,19.355-80.175,19.355H67.077l39.404-264.081h110.306c36.251,0,63.47,11.132,78.963,31.16
		l11.129-74.629h140.712l-27.486,183.437h49.357l33.432-224.145h448.299l-54.601,237.146h-1.155
		c5.964,11.319,7.14,23.307,7.14,31.023C902.577,437.604,872.959,466.055,819.172,466.055"/>
	<path fill="#1A1A1A" d="M818.879,466.348c-29.833,0-46.834-9.953-56.446-22.33l-3.353,22.33H450.651l0.006-0.083H260.721
		l2.871-19.272c-19.963,12.582-47.098,19.355-80.176,19.355H66.784l39.404-264.082h110.305c36.251,0,63.47,11.132,78.963,31.16
		l11.129-74.628h140.713l-27.486,183.437h49.357l33.432-224.146H950.9L896.3,355.235h-1.155c5.964,11.319,7.139,23.307,7.139,31.023
		C902.283,437.896,872.666,466.348,818.879,466.348"/>
	<path fill="#1A1A1A" d="M818.586,466.642c-29.833,0-46.833-9.953-56.446-22.33l-3.353,22.33H450.358l0.006-0.083H260.428
		l2.871-19.273c-19.963,12.583-47.098,19.356-80.176,19.356H66.491l39.404-264.083h110.306c36.251,0,63.47,11.132,78.964,31.16
		l11.128-74.628h140.712L419.52,342.527h49.357l33.432-224.145h448.299l-54.601,237.147h-1.155
		c5.964,11.318,7.14,23.307,7.14,31.023C901.991,438.189,872.373,466.642,818.586,466.642"/>
	<path fill="#1A1A1A" d="M818.293,466.935c-29.832,0-46.833-9.953-56.445-22.33l-3.354,22.33H450.066l0.005-0.083H260.136
		l2.87-19.273c-19.963,12.583-47.098,19.356-80.175,19.356H66.199l39.404-264.082h110.306c36.252,0,63.47,11.132,78.964,31.16
		l11.129-74.629h140.712L419.227,342.82h49.357l33.432-224.145h448.299l-54.601,237.147h-1.155
		c5.965,11.318,7.14,23.307,7.14,31.023C901.698,438.482,872.08,466.935,818.293,466.935"/>
	<path fill="#1A1A1A" d="M818,467.227c-29.832,0-46.833-9.953-56.446-22.33l-3.353,22.33H449.772l0.006-0.083H259.843l2.87-19.272
		c-19.963,12.582-47.098,19.355-80.175,19.355H65.905l39.404-264.082h110.306c36.251,0,63.47,11.131,78.963,31.16l11.129-74.628
		H446.42l-27.486,183.437h49.357l33.432-224.145h448.299l-54.601,237.146h-1.155c5.964,11.319,7.14,23.308,7.14,31.024
		C901.405,438.776,871.787,467.227,818,467.227"/>
	<path fill="#1A1A1A" d="M817.707,467.52c-29.832,0-46.833-9.953-56.446-22.33l-3.353,22.33H449.479l0.006-0.083H259.549
		l2.871-19.272c-19.963,12.582-47.098,19.355-80.176,19.355H65.612l39.404-264.082h110.306c36.251,0,63.47,11.132,78.963,31.16
		l11.129-74.628h140.712l-27.486,183.436h49.357l33.432-224.145h448.299l-54.601,237.146h-1.155
		c5.964,11.319,7.14,23.307,7.14,31.023C901.112,439.068,871.494,467.52,817.707,467.52"/>
	<path fill="#1A1A1A" d="M817.414,467.812c-29.832,0-46.832-9.953-56.445-22.33l-3.354,22.33H449.187l0.006-0.083H259.257
		l2.87-19.272c-19.962,12.582-47.098,19.355-80.175,19.355H65.319l39.404-264.082h110.306c36.251,0,63.47,11.131,78.964,31.16
		l11.129-74.628h140.712l-27.486,183.437h49.357l33.432-224.146h448.299l-54.6,237.147h-1.156c5.964,11.318,7.14,23.306,7.14,31.022
		C900.819,439.361,871.201,467.812,817.414,467.812"/>
	<path fill="#1A1A1A" d="M817.122,468.105c-29.833,0-46.833-9.953-56.446-22.33l-3.354,22.33H448.894l0.006-0.082H258.964
		l2.87-19.273c-19.962,12.582-47.097,19.355-80.175,19.355H65.027l39.404-264.081h110.306c36.251,0,63.469,11.131,78.963,31.159
		l11.129-74.628h140.713l-27.487,183.437h49.358l33.432-224.145h448.299l-54.601,237.146h-1.156
		c5.965,11.318,7.141,23.307,7.141,31.022C900.527,439.655,870.909,468.105,817.122,468.105"/>
	<path fill="#1A1A1A" d="M816.828,468.398c-29.832,0-46.833-9.953-56.446-22.33l-3.353,22.33H448.601l0.006-0.083H258.671
		l2.87-19.272c-19.962,12.582-47.098,19.355-80.175,19.355H64.734l39.404-264.082h110.305c36.252,0,63.47,11.131,78.964,31.16
		l11.129-74.628h140.712l-27.486,183.436h49.357l33.432-224.145h448.299l-54.602,237.146h-1.155
		c5.965,11.319,7.14,23.307,7.14,31.024C900.233,439.947,870.615,468.398,816.828,468.398"/>
	<path fill="#1A1A1A" d="M816.535,468.691c-29.832,0-46.833-9.953-56.446-22.33l-3.353,22.33H448.308l0.006-0.083H258.378
		l2.87-19.272c-19.963,12.582-47.098,19.355-80.175,19.355H64.44l39.404-264.082H214.15c36.251,0,63.47,11.132,78.963,31.16
		l11.129-74.629h140.712l-27.486,183.437h49.358l33.432-224.145h448.298l-54.601,237.146h-1.155
		c5.964,11.319,7.14,23.307,7.14,31.023C899.94,440.24,870.322,468.691,816.535,468.691"/>
	<path fill="#1A1A1A" d="M816.242,468.984c-29.832,0-46.832-9.953-56.445-22.33l-3.354,22.33H448.016l0.006-0.083H258.085
		l2.87-19.272c-19.963,12.582-47.098,19.355-80.175,19.355H64.147l39.405-264.082h110.305c36.252,0,63.47,11.132,78.964,31.16
		l11.129-74.628h140.712L417.176,344.87h49.357l33.432-224.145h448.299l-54.601,237.146h-1.155
		c5.964,11.319,7.14,23.307,7.14,31.023C899.648,440.533,870.029,468.984,816.242,468.984"/>
	<path fill="#1A1A1A" d="M815.95,469.277c-29.833,0-46.833-9.953-56.446-22.33l-3.353,22.33H447.723l0.006-0.083H257.792
		l2.87-19.272c-19.962,12.582-47.098,19.355-80.175,19.355H63.855l39.404-264.082h110.305c36.252,0,63.47,11.132,78.964,31.16
		l11.129-74.628H444.37l-27.486,183.436h49.357l33.432-224.145h448.299l-54.601,237.146h-1.155
		c5.964,11.319,7.14,23.307,7.14,31.023C899.355,440.826,869.737,469.277,815.95,469.277"/>
	<path fill="#1A1A1A" d="M815.657,469.57c-29.833,0-46.833-9.953-56.446-22.33l-3.354,22.33H447.43l0.006-0.083H257.5l2.87-19.272
		c-19.962,12.582-47.098,19.355-80.175,19.355H63.562l39.404-264.082h110.305c36.252,0,63.47,11.132,78.964,31.16l11.129-74.628
		h140.712l-27.486,183.436h49.357l33.432-224.145h448.299l-54.601,237.146h-1.155c5.964,11.319,7.14,23.307,7.14,31.023
		C899.062,441.119,869.444,469.57,815.657,469.57"/>
	<path fill="#1A1A1A" d="M815.363,469.863c-29.832,0-46.833-9.953-56.446-22.33l-3.353,22.33H447.136l0.006-0.084H257.206
		l2.871-19.271c-19.963,12.582-47.098,19.355-80.175,19.355H63.269l39.404-264.083h110.306c36.252,0,63.47,11.132,78.964,31.161
		l11.129-74.629h140.712l-27.486,183.437h49.357l33.433-224.145h448.298l-54.601,237.147h-1.155
		c5.965,11.319,7.14,23.307,7.14,31.022C898.769,441.412,869.15,469.863,815.363,469.863"/>
	<path fill="#1A1A1A" d="M815.07,470.156c-29.832,0-46.832-9.953-56.445-22.33l-3.353,22.33H446.844l0.006-0.083H256.913
		l2.871-19.272c-19.963,12.582-47.099,19.355-80.176,19.355H62.977l39.404-264.082h110.305c36.252,0,63.47,11.132,78.964,31.16
		l11.129-74.629h140.713l-27.486,183.436h49.357l33.432-224.144h448.299l-54.601,237.146h-1.156
		c5.965,11.319,7.141,23.307,7.141,31.023C898.477,441.705,868.858,470.156,815.07,470.156"/>
	<path fill="#1A1A1A" d="M814.778,470.449c-29.833,0-46.833-9.953-56.446-22.33l-3.353,22.33H446.551l0.006-0.083H256.621
		l2.87-19.272c-19.963,12.582-47.098,19.355-80.175,19.355H62.684l39.404-264.082h110.305c36.252,0,63.47,11.132,78.964,31.16
		l11.128-74.628h140.712l-27.486,183.436h49.357l33.432-224.145H946.8l-54.601,237.146h-1.155c5.964,11.319,7.14,23.307,7.14,31.023
		C898.184,441.998,868.565,470.449,814.778,470.449"/>
	<path fill="#1A1A1A" d="M814.485,470.742c-29.833,0-46.833-9.953-56.446-22.33l-3.353,22.33H446.258l0.006-0.083H256.328
		l2.871-19.272c-19.963,12.582-47.098,19.355-80.176,19.355H62.391l39.404-264.082H212.1c36.251,0,63.47,11.132,78.963,31.16
		l11.129-74.629h140.713l-27.486,183.437h49.357l33.432-224.145h448.299l-54.601,237.146h-1.155
		c5.964,11.32,7.14,23.307,7.14,31.024C897.891,442.291,868.272,470.742,814.485,470.742"/>
	<path fill="#1A1A1A" d="M814.191,471.035c-29.832,0-46.832-9.953-56.445-22.33l-3.353,22.33H445.964l0.006-0.084H256.034
		l2.871-19.272c-19.962,12.583-47.098,19.356-80.175,19.356H62.098l39.404-264.083h110.305c36.252,0,63.47,11.131,78.964,31.16
		l11.128-74.628h140.712L415.126,346.92h49.357l33.432-224.145h448.298l-54.6,237.146h-1.155c5.964,11.319,7.14,23.307,7.14,31.023
		C897.598,442.584,867.979,471.035,814.191,471.035"/>
	<path fill="#1A1A1A" d="M813.899,471.328c-29.833,0-46.833-9.953-56.446-22.33l-3.353,22.33H445.672l0.006-0.084H255.742
		l2.87-19.271c-19.963,12.582-47.098,19.355-80.176,19.355H61.805l39.404-264.083h110.305c36.251,0,63.47,11.133,78.964,31.161
		l11.129-74.629h140.712l-27.486,183.436h49.357l33.432-224.144h448.299L891.32,360.215h-1.155c5.964,11.32,7.14,23.307,7.14,31.023
		C897.305,442.877,867.687,471.328,813.899,471.328"/>
	<path fill="#1A1A1A" d="M813.607,471.621c-29.833,0-46.834-9.953-56.447-22.33l-3.353,22.33H445.379l0.005-0.083H255.449
		l2.87-19.272c-19.962,12.582-47.098,19.355-80.175,19.355H61.512l39.404-264.083h110.306c36.251,0,63.47,11.132,78.963,31.161
		l11.129-74.629h140.712L414.54,347.507h49.357l33.433-224.145h448.298l-54.601,237.147h-1.155
		c5.964,11.319,7.14,23.307,7.14,31.022C897.012,443.17,867.394,471.621,813.607,471.621"/>
	<path fill="#1A1A1A" d="M813.313,471.914c-29.833,0-46.833-9.953-56.446-22.33l-3.353,22.33H445.086l0.006-0.084H255.156
		l2.87-19.271c-19.963,12.581-47.098,19.355-80.175,19.355H61.219l39.404-264.083h110.306c36.251,0,63.47,11.132,78.964,31.161
		l11.128-74.629h140.712l-27.486,183.436h49.357l33.432-224.144h448.298l-54.601,237.147h-1.155
		c5.964,11.318,7.14,23.307,7.14,31.023C896.719,443.463,867.101,471.914,813.313,471.914"/>
	<path fill="#1A1A1A" d="M813.021,472.206c-29.833,0-46.833-9.953-56.446-22.33l-3.353,22.33H444.793l0.006-0.083H254.863
		l2.87-19.272c-19.962,12.582-47.098,19.355-80.175,19.355H60.926l39.404-264.082h110.305c36.251,0,63.47,11.132,78.963,31.16
		l11.129-74.628H441.44l-27.486,183.436h49.357l33.432-224.144h448.299l-54.601,237.146h-1.155
		c5.964,11.319,7.14,23.307,7.14,31.023C896.426,443.755,866.808,472.206,813.021,472.206"/>
	<path fill="#1A1A1A" d="M812.728,472.499c-29.833,0-46.833-9.952-56.446-22.329l-3.353,22.329H444.5l0.006-0.083H254.57
		l2.87-19.272c-19.963,12.583-47.098,19.355-80.175,19.355H60.633l39.404-264.082h110.306c36.251,0,63.47,11.132,78.963,31.16
		l11.129-74.628h140.712l-27.486,183.436h49.357L496.45,124.24h448.299l-54.601,237.146h-1.154
		c5.963,11.319,7.139,23.307,7.139,31.023C896.133,444.048,866.515,472.499,812.728,472.499"/>
	<path fill="#1A1A1A" d="M812.436,472.793c-29.833,0-46.833-9.953-56.447-22.33l-3.352,22.33H444.208l0.006-0.084H254.277
		l2.87-19.271c-19.962,12.582-47.098,19.355-80.175,19.355H60.34L99.745,208.71H210.05c36.251,0,63.47,11.132,78.964,31.161
		l11.129-74.629h140.712l-27.486,183.436h49.357l33.432-224.144h448.299L889.855,361.68h-1.154c5.963,11.32,7.14,23.307,7.14,31.023
		C895.841,444.342,866.223,472.793,812.436,472.793"/>
	<path fill="#1A1A1A" d="M812.143,473.086c-29.833,0-46.834-9.954-56.447-22.331l-3.353,22.331H443.914l0.006-0.084H253.984
		l2.87-19.272c-19.963,12.582-47.098,19.356-80.175,19.356H60.047l39.405-264.083h110.305c36.251,0,63.47,11.132,78.964,31.16
		l11.129-74.628h140.712l-27.486,183.436h49.357l33.433-224.145h448.299l-54.602,237.146h-1.155
		c5.964,11.319,7.14,23.307,7.14,31.023C895.547,444.634,865.929,473.086,812.143,473.086"/>
	<path fill="#1A1A1A" d="M811.849,473.378c-29.833,0-46.833-9.953-56.446-22.33l-3.353,22.33H443.621l0.006-0.083H253.691
		l2.87-19.272c-19.962,12.582-47.097,19.355-80.175,19.355H59.754l39.404-264.082h110.306c36.251,0,63.47,11.132,78.964,31.16
		l11.128-74.628h140.712l-27.486,183.436h49.357l33.432-224.145H943.87L889.27,362.266h-1.155c5.964,11.319,7.14,23.307,7.14,31.023
		C895.254,444.927,865.636,473.378,811.849,473.378"/>
	<path fill="#1A1A1A" d="M811.556,473.671c-29.832,0-46.833-9.953-56.446-22.33l-3.352,22.33h-308.43l0.006-0.083H253.398
		l2.87-19.272c-19.963,12.582-47.098,19.355-80.175,19.355H59.461l39.404-264.082h110.305c36.251,0,63.47,11.132,78.964,31.16
		l11.129-74.628h140.712L412.49,349.557h49.357l33.432-224.145h448.299l-54.602,237.146h-1.154
		c5.963,11.319,7.139,23.307,7.139,31.023C894.961,445.22,865.344,473.671,811.556,473.671"/>
	<path fill="#1A1A1A" d="M811.264,473.964c-29.833,0-46.834-9.952-56.447-22.33l-3.352,22.33H443.036l0.006-0.083H253.106
		l2.87-19.272c-19.962,12.583-47.098,19.355-80.175,19.355H59.169l39.404-264.082h110.305c36.252,0,63.47,11.132,78.964,31.16
		l11.129-74.628h140.712L412.197,349.85h49.357l33.432-224.145h448.299l-54.601,237.146h-1.155
		c5.963,11.32,7.139,23.307,7.139,31.023C894.668,445.513,865.051,473.964,811.264,473.964"/>
	<path fill="#1A1A1A" d="M810.971,474.257c-29.833,0-46.834-9.953-56.447-22.33l-3.352,22.33H442.743l0.005-0.083H252.812
		l2.87-19.272c-19.962,12.582-47.098,19.355-80.175,19.355H58.875L98.28,210.175h110.305c36.252,0,63.47,11.132,78.964,31.16
		l11.129-74.628H439.39l-27.486,183.436h49.358l33.432-224.145h448.299l-54.602,237.146h-1.154
		c5.963,11.319,7.139,23.307,7.139,31.023C894.375,445.806,864.758,474.257,810.971,474.257"/>
	<path fill="#1A1A1A" d="M810.678,474.549c-29.833,0-46.834-9.952-56.447-22.329l-3.352,22.329H442.45l0.006-0.082H252.52
		l2.87-19.272c-19.963,12.582-47.098,19.354-80.175,19.354H58.582l39.405-264.082h110.305c36.251,0,63.47,11.132,78.964,31.161
		l11.129-74.629h140.712L411.61,350.436h49.357L494.4,126.291h448.299l-54.602,237.146h-1.154
		c5.963,11.319,7.139,23.307,7.139,31.023C894.082,446.098,864.464,474.549,810.678,474.549"/>
	<path fill="#1A1A1A" d="M810.385,474.843c-29.833,0-46.833-9.953-56.446-22.33l-3.353,22.33H442.157l0.006-0.083H252.227
		l2.87-19.272c-19.962,12.582-47.098,19.355-80.175,19.355H58.29l39.404-264.082h110.305c36.252,0,63.47,11.132,78.964,31.16
		l11.129-74.628h140.712l-27.486,183.436h49.357l33.432-224.145h448.299L887.805,363.73h-1.154
		c5.964,11.319,7.14,23.307,7.14,31.023C893.79,446.391,864.172,474.843,810.385,474.843"/>
	<path fill="#1A1A1A" d="M810.092,475.136c-29.833,0-46.834-9.953-56.447-22.33l-3.352,22.33H441.864l0.006-0.083H251.934
		l2.87-19.273c-19.962,12.582-47.098,19.356-80.175,19.356H57.997l39.404-264.082h110.306c36.251,0,63.47,11.132,78.963,31.16
		l11.129-74.629h140.713l-27.486,183.437h49.357l33.432-224.145h448.299l-54.602,237.146h-1.154
		c5.963,11.319,7.139,23.307,7.139,31.023C893.496,446.685,863.879,475.136,810.092,475.136"/>
	<path fill="#1A1A1A" d="M809.799,475.429c-29.833,0-46.834-9.953-56.447-22.33L750,475.429H441.571l0.006-0.083H251.641
		l2.87-19.272c-19.962,12.582-47.098,19.355-80.175,19.355H57.704l39.404-264.082h110.305c36.251,0,63.47,11.132,78.963,31.16
		l11.129-74.628h140.713l-27.486,183.437h49.357l33.432-224.145H941.82L887.22,364.316h-1.155
		c5.963,11.319,7.139,23.307,7.139,31.023C893.203,446.978,863.586,475.429,809.799,475.429"/>
	<path fill="#1A1A1A" d="M809.506,475.721c-29.832,0-46.833-9.952-56.446-22.33l-3.353,22.33H441.278l0.005-0.082H251.348
		l2.87-19.273c-19.962,12.583-47.098,19.355-80.175,19.355H57.411L96.815,211.64h110.305c36.251,0,63.47,11.132,78.964,31.16
		l11.129-74.629h140.712l-27.486,183.437h49.357l33.432-224.145h448.299l-54.602,237.146h-1.154
		c5.964,11.319,7.14,23.307,7.14,31.023C892.911,447.271,863.293,475.721,809.506,475.721"/>
	<path fill="#1A1A1A" d="M809.213,476.014c-29.832,0-46.833-9.952-56.446-22.33l-3.353,22.33H440.985l0.005-0.082H251.055
		l2.87-19.272c-19.962,12.582-47.097,19.354-80.175,19.354H57.118l39.404-264.081h110.306c36.251,0,63.47,11.131,78.963,31.16
		l11.129-74.628h140.712L410.146,351.9h49.357l33.432-224.145h448.299l-54.601,237.147h-1.155c5.964,11.319,7.14,23.307,7.14,31.023
		C892.618,447.563,863,476.014,809.213,476.014"/>
	<path fill="#1A1A1A" d="M808.92,476.307c-29.832,0-46.833-9.953-56.446-22.329l-3.353,22.329H440.692l0.006-0.082H250.762
		l2.871-19.273c-19.963,12.582-47.098,19.355-80.176,19.355H56.825l39.404-264.081h110.306c36.251,0,63.469,11.131,78.963,31.16
		l11.129-74.629H437.34l-27.486,183.437h49.357l33.432-224.145h448.299l-54.601,237.146h-1.155
		c5.964,11.319,7.14,23.307,7.14,31.023C892.325,447.856,862.707,476.307,808.92,476.307"/>
	<path fill="#1A1A1A" d="M808.627,476.601c-29.832,0-46.833-9.953-56.446-22.331l-3.353,22.331H440.399l0.006-0.083H250.47
		l2.87-19.273c-19.963,12.582-47.098,19.356-80.176,19.356H56.532l39.404-264.082h110.306c36.251,0,63.469,11.131,78.963,31.16
		l11.129-74.628h140.712l-27.486,183.437h49.357l33.432-224.145h448.299l-54.601,237.147h-1.155
		c5.964,11.318,7.14,23.307,7.14,31.023C892.032,448.149,862.414,476.601,808.627,476.601"/>
	<path fill="#1A1A1A" d="M808.334,476.893c-29.832,0-46.833-9.953-56.446-22.33l-3.353,22.33H440.106l0.006-0.082H250.177
		l2.87-19.273c-19.963,12.582-47.098,19.355-80.176,19.355H56.239l39.404-264.081h110.306c36.251,0,63.47,11.131,78.964,31.16
		l11.128-74.628h140.712l-27.486,183.436h49.357l33.432-224.145h448.299l-54.601,237.147H884.6
		c5.964,11.318,7.14,23.307,7.14,31.022C891.739,448.441,862.121,476.893,808.334,476.893"/>
	<path fill="#1A1A1A" d="M808.041,477.186c-29.832,0-46.833-9.953-56.446-22.33l-3.353,22.33H439.813l0.006-0.082H249.884
		l2.87-19.273c-19.963,12.582-47.098,19.355-80.176,19.355H55.946l39.404-264.082h110.306c36.251,0,63.47,11.132,78.963,31.16
		l11.129-74.628h140.712l-27.486,183.436h49.357l33.432-224.144h448.298l-54.601,237.146h-1.155
		c5.964,11.319,7.14,23.308,7.14,31.023C891.446,448.734,861.828,477.186,808.041,477.186"/>
	<path fill="#1A1A1A" d="M807.748,477.479c-29.832,0-46.833-9.953-56.446-22.33l-3.353,22.33H439.521l0.006-0.082H249.591
		l2.87-19.273c-19.963,12.582-47.098,19.355-80.176,19.355H55.653l39.404-264.082h110.306c36.251,0,63.47,11.131,78.963,31.16
		l11.129-74.628h140.712l-27.486,183.437h49.357l33.432-224.145H939.77l-54.601,237.146h-1.155
		c5.964,11.319,7.14,23.307,7.14,31.024C891.153,449.027,861.535,477.479,807.748,477.479"/>
	<path fill="#1A1A1A" d="M807.455,477.771c-29.832,0-46.833-9.953-56.446-22.33l-3.353,22.33H439.228l0.006-0.082H249.298
		l2.87-19.273c-19.963,12.582-47.098,19.355-80.176,19.355H55.36L94.765,213.69H205.07c36.251,0,63.47,11.132,78.964,31.16
		l11.128-74.628h140.712l-27.486,183.437h49.357l33.432-224.146h448.299L884.876,366.66h-1.155
		c5.964,11.318,7.14,23.306,7.14,31.023C890.86,449.32,861.242,477.771,807.455,477.771"/>
	<path fill="#1A1A1A" d="M807.162,478.064c-29.832,0-46.833-9.953-56.446-22.33l-3.353,22.33H438.935l0.006-0.083H249.005
		l2.87-19.272c-19.963,12.582-47.098,19.355-80.176,19.355H55.067l39.404-264.082h110.306c36.251,0,63.47,11.131,78.963,31.16
		l11.129-74.628h140.712L408.096,353.95h49.357l33.432-224.144h448.298l-54.601,237.146h-1.155
		c5.964,11.319,7.141,23.307,7.141,31.023C890.568,449.613,860.949,478.064,807.162,478.064"/>
	<path fill="#1A1A1A" d="M806.869,478.357c-29.832,0-46.833-9.953-56.445-22.33l-3.354,22.33H438.642l0.006-0.083H248.712
		l2.87-19.272c-19.962,12.582-47.098,19.355-80.176,19.355H54.775l39.404-264.082h110.306c36.251,0,63.47,11.132,78.964,31.16
		l11.128-74.628h140.712l-27.486,183.436h49.358l33.432-224.145h448.298L884.29,367.245h-1.155
		c5.964,11.319,7.14,23.307,7.14,31.023C890.274,449.906,860.656,478.357,806.869,478.357"/>
	<path fill="#1A1A1A" d="M806.576,478.65c-29.832,0-46.832-9.953-56.446-22.33l-3.353,22.33H438.349l0.006-0.083H248.419
		l2.87-19.272c-19.963,12.582-47.098,19.355-80.175,19.355H54.481l39.404-264.082h110.306c36.252,0,63.47,11.132,78.964,31.16
		l11.129-74.628h140.712L407.51,354.536h49.357l33.432-224.145h448.298l-54.6,237.146h-1.156c5.964,11.319,7.14,23.307,7.14,31.023
		C889.981,450.199,860.363,478.65,806.576,478.65"/>
	<path fill="#1A1A1A" d="M806.283,478.943c-29.832,0-46.833-9.953-56.446-22.33l-3.353,22.33H438.056l0.006-0.083H248.126
		l2.87-19.272c-19.962,12.582-47.098,19.355-80.175,19.355H54.188l39.405-264.082h110.305c36.251,0,63.47,11.132,78.964,31.16
		l11.129-74.628h140.712l-27.487,183.436h49.357l33.433-224.145h448.298l-54.6,237.146h-1.156
		c5.965,11.319,7.141,23.307,7.141,31.023C889.689,450.492,860.07,478.943,806.283,478.943"/>
	<path fill="#1A1A1A" d="M805.99,479.236c-29.832,0-46.833-9.953-56.445-22.33l-3.354,22.33H437.763l0.006-0.083H247.833
		l2.87-19.272c-19.962,12.582-47.098,19.355-80.175,19.355H53.896L93.3,215.154h110.305c36.252,0,63.47,11.132,78.964,31.16
		l11.129-74.629h140.712l-27.486,183.437h49.357l33.432-224.145h448.298l-54.601,237.146h-1.155
		c5.965,11.319,7.14,23.307,7.14,31.023C889.396,450.785,859.777,479.236,805.99,479.236"/>
	<path fill="#1A1A1A" d="M805.697,479.529c-29.832,0-46.832-9.953-56.445-22.33l-3.354,22.33H437.47l0.006-0.083H247.541
		l2.87-19.272c-19.962,12.582-47.098,19.355-80.175,19.355H53.604l39.404-264.082h110.305c36.251,0,63.47,11.132,78.964,31.16
		l11.129-74.629h140.712l-27.485,183.437h49.356l33.432-224.145h448.298l-54.6,237.146h-1.156
		c5.964,11.319,7.141,23.307,7.141,31.023C889.104,451.078,859.484,479.529,805.697,479.529"/>
	<path fill="#1A1A1A" d="M805.404,479.822c-29.832,0-46.832-9.953-56.446-22.33l-3.352,22.33H437.177l0.006-0.083H247.247
		l2.87-19.272c-19.962,12.582-47.098,19.355-80.175,19.355H53.31L92.714,215.74H203.02c36.252,0,63.47,11.132,78.964,31.16
		l11.129-74.629h140.712l-27.486,183.437h49.357l33.432-224.145h448.298l-54.6,237.146h-1.155c5.964,11.319,7.14,23.307,7.14,31.023
		C888.811,451.371,859.192,479.822,805.404,479.822"/>
	<path fill="#1A1A1A" d="M805.111,480.115c-29.832,0-46.832-9.953-56.445-22.33l-3.354,22.33H436.884l0.006-0.083H246.954
		l2.87-19.272c-19.962,12.582-47.097,19.355-80.175,19.355H53.017l39.405-264.082h110.305c36.251,0,63.469,11.132,78.963,31.16
		l11.129-74.628h140.712l-27.486,183.436h49.358l33.432-224.145h448.298l-54.601,237.146h-1.154
		c5.964,11.319,7.14,23.307,7.14,31.023C888.518,451.664,858.899,480.115,805.111,480.115"/>
	<path fill="#1A1A1A" d="M804.819,480.408c-29.833,0-46.833-9.953-56.446-22.33l-3.353,22.33H436.592l0.005-0.083H246.662
		l2.87-19.272c-19.962,12.582-47.097,19.355-80.175,19.355H52.725l39.404-264.082h110.305c36.251,0,63.469,11.131,78.963,31.16
		l11.129-74.628h140.713l-27.486,183.436h49.357l33.432-224.145H936.84l-54.6,237.146h-1.155c5.964,11.319,7.14,23.307,7.14,31.023
		C888.225,451.957,858.606,480.408,804.819,480.408"/>
	<path fill="#1A1A1A" d="M804.526,480.701c-29.833,0-46.833-9.953-56.446-22.33l-3.354,22.33H436.299l0.005-0.083H246.369
		l2.87-19.272c-19.962,12.582-47.097,19.355-80.175,19.355H52.432l39.404-264.082h110.305c36.251,0,63.47,11.132,78.963,31.16
		l11.129-74.629h140.713L405.46,356.587h49.357l33.432-224.145h448.299l-54.601,237.147h-1.155
		c5.964,11.319,7.14,23.307,7.14,31.023C887.932,452.25,858.313,480.701,804.526,480.701"/>
	<path fill="#1A1A1A" d="M804.233,480.994c-29.833,0-46.833-9.953-56.446-22.33l-3.353,22.33H436.006l0.005-0.083H246.076
		l2.87-19.272c-19.962,12.582-47.098,19.355-80.175,19.355H52.139l39.404-264.082h110.305c36.251,0,63.47,11.131,78.963,31.16
		l11.129-74.629h140.713l-27.487,183.436h49.358l33.432-224.144h448.299l-54.601,237.146h-1.155
		c5.964,11.32,7.14,23.308,7.14,31.023C887.639,452.543,858.02,480.994,804.233,480.994"/>
	<path fill="#1A1A1A" d="M803.94,481.287c-29.832,0-46.833-9.953-56.446-22.331l-3.353,22.331H435.713l0.006-0.083H245.783
		l2.87-19.272c-19.962,12.582-47.098,19.355-80.175,19.355H51.846L91.25,217.205h110.306c36.251,0,63.47,11.132,78.963,31.16
		l11.129-74.628H432.36l-27.486,183.436h49.357l33.432-224.144h448.299l-54.601,237.146h-1.155c5.964,11.32,7.14,23.307,7.14,31.023
		C887.346,452.836,857.727,481.287,803.94,481.287"/>
	<path fill="#1A1A1A" d="M803.646,481.579c-29.831,0-46.832-9.952-56.445-22.329l-3.353,22.329H435.42l0.006-0.082H245.49
		l2.87-19.272c-19.962,12.582-47.098,19.354-80.175,19.354H51.553l39.404-264.081h110.305c36.251,0,63.47,11.131,78.964,31.16
		l11.129-74.629h140.712l-27.486,183.436h49.357l33.432-224.144h448.298l-54.601,237.147h-1.155
		c5.964,11.319,7.14,23.306,7.14,31.022C887.053,453.129,857.435,481.579,803.646,481.579"/>
	<path fill="#1A1A1A" d="M803.354,481.873c-29.833,0-46.833-9.953-56.446-22.33l-3.353,22.33H435.127l0.006-0.084H245.197
		l2.87-19.272c-19.962,12.582-47.098,19.356-80.175,19.356H51.26l39.404-264.082h110.305c36.251,0,63.47,11.131,78.964,31.16
		l11.128-74.628h140.712l-27.486,183.437h49.357l33.432-224.145h448.299L880.775,370.76h-1.155c5.964,11.32,7.14,23.307,7.14,31.024
		C886.76,453.422,857.142,481.873,803.354,481.873"/>
	<path fill="#1A1A1A" d="M803.062,482.166c-29.833,0-46.833-9.953-56.446-22.331l-3.353,22.331H434.834l0.006-0.084H244.904
		l2.87-19.271c-19.962,12.582-47.097,19.355-80.175,19.355H50.967l39.404-264.082h110.306c36.251,0,63.47,11.131,78.963,31.16
		l11.129-74.629h140.712l-27.486,183.436h49.357l33.432-224.144h448.299l-54.601,237.146h-1.155
		c5.964,11.32,7.14,23.307,7.14,31.023C886.467,453.715,856.849,482.166,803.062,482.166"/>
	<path fill="#1A1A1A" d="M802.769,482.459c-29.833,0-46.833-9.954-56.446-22.331l-3.353,22.331H434.541l0.006-0.084H244.611
		l2.87-19.271c-19.962,12.582-47.097,19.355-80.175,19.355H50.674l39.404-264.083h110.306c36.251,0,63.47,11.131,78.963,31.16
		l11.129-74.628h140.712l-27.486,183.436h49.357l33.432-224.145H934.79l-54.601,237.146h-1.155c5.964,11.32,7.14,23.307,7.14,31.023
		C886.174,454.008,856.556,482.459,802.769,482.459"/>
	<path fill="#1A1A1A" d="M802.476,482.751c-29.833,0-46.833-9.952-56.446-22.329l-3.353,22.329H434.248l0.006-0.083H244.318
		l2.87-19.272c-19.963,12.583-47.098,19.355-80.176,19.355H50.381l39.404-264.082h110.306c36.251,0,63.47,11.132,78.964,31.16
		l11.128-74.628h140.712l-27.486,183.436h49.357l33.432-224.145h448.298l-54.601,237.146h-1.155
		c5.964,11.32,7.14,23.307,7.14,31.023C885.881,454.3,856.263,482.751,802.476,482.751"/>
	<path fill="#1A1A1A" d="M802.183,483.044c-29.832,0-46.833-9.953-56.446-22.33l-3.353,22.33H433.955l0.006-0.083H244.025
		l2.87-19.271c-19.963,12.581-47.098,19.354-80.176,19.354H50.088l39.404-264.082h110.306c36.251,0,63.47,11.132,78.963,31.16
		l11.129-74.628h140.712L403.116,358.93h49.357l33.432-224.145h448.299l-54.601,237.146h-1.155c5.964,11.32,7.14,23.307,7.14,31.023
		C885.588,454.593,855.97,483.044,802.183,483.044"/>
	<path fill="#1A1A1A" d="M801.89,483.337c-29.832,0-46.833-9.953-56.446-22.33l-3.353,22.33H433.662l0.006-0.083H243.732
		l2.87-19.272c-19.963,12.582-47.098,19.355-80.176,19.355H49.795l39.404-264.082h110.306c36.251,0,63.47,11.132,78.964,31.16
		l11.129-74.628H430.31l-27.486,183.436h49.357l33.432-224.145h448.299l-54.601,237.146h-1.155
		c5.964,11.319,7.14,23.307,7.14,31.023C885.295,454.886,855.677,483.337,801.89,483.337"/>
	<path fill="#1A1A1A" d="M801.597,483.63c-29.832,0-46.833-9.953-56.446-22.33l-3.353,22.33H433.369l0.006-0.083H243.439
		l2.87-19.272c-19.963,12.582-47.098,19.355-80.176,19.355H49.502l39.404-264.082h110.306c36.251,0,63.47,11.132,78.964,31.16
		l11.129-74.628h140.712L402.53,359.516h49.357l33.433-224.145h448.298l-54.601,237.146h-1.155
		c5.964,11.319,7.14,23.307,7.14,31.023C885.002,455.179,855.384,483.63,801.597,483.63"/>
	<path fill="#1A1A1A" d="M801.305,483.923c-29.833,0-46.834-9.953-56.447-22.33l-3.353,22.33H433.076l0.006-0.083H243.146
		l2.87-19.272c-19.963,12.582-47.098,19.355-80.175,19.355H49.209l39.404-264.082h110.306c36.252,0,63.47,11.132,78.963,31.16
		l11.129-74.628h140.712l-27.486,183.436h49.357l33.432-224.145h448.298l-54.601,237.146h-1.155
		c5.964,11.319,7.14,23.307,7.14,31.023C884.709,455.472,855.092,483.923,801.305,483.923"/>
	<path fill="#1A1A1A" d="M801.012,484.216c-29.833,0-46.834-9.953-56.447-22.33l-3.352,22.33H432.784l0.006-0.083H242.854
		l2.871-19.272c-19.963,12.582-47.098,19.355-80.175,19.355H48.916l39.405-264.082h110.306c36.251,0,63.469,11.132,78.963,31.16
		l11.129-74.628h140.712l-27.486,183.436h49.357l33.432-224.145h448.298l-54.601,237.146h-1.155
		c5.964,11.319,7.14,23.307,7.14,31.023C884.416,455.765,854.799,484.216,801.012,484.216"/>
	<path fill="#1A1A1A" d="M800.718,484.509c-29.832,0-46.833-9.953-56.445-22.33l-3.354,22.33H432.491l0.006-0.083H242.561
		l2.871-19.272c-19.963,12.582-47.098,19.355-80.175,19.355H48.624l39.404-264.082h110.306c36.251,0,63.469,11.132,78.963,31.16
		l11.129-74.628h140.713l-27.487,183.436h49.357l33.432-224.145h448.298l-54.601,237.146h-1.155
		c5.964,11.319,7.14,23.307,7.14,31.023C884.123,456.058,854.506,484.509,800.718,484.509"/>
	<path fill="#1A1A1A" d="M800.425,484.802c-29.832,0-46.832-9.953-56.446-22.33l-3.352,22.33H432.198l0.006-0.083H242.268
		l2.87-19.272c-19.963,12.582-47.098,19.355-80.175,19.355H48.331L87.734,220.72H198.04c36.251,0,63.47,11.132,78.964,31.16
		l11.129-74.628h140.712l-27.486,183.436h49.357l33.433-224.145h448.299l-54.602,237.146h-1.155
		c5.965,11.319,7.14,23.307,7.14,31.023C883.83,456.351,854.213,484.802,800.425,484.802"/>
	<path fill="#1A1A1A" d="M800.133,485.094c-29.833,0-46.834-9.952-56.447-22.33l-3.353,22.33H431.905l0.006-0.082H241.975
		l2.871-19.272c-19.963,12.582-47.098,19.354-80.175,19.354H48.037l39.404-264.082h110.306c36.252,0,63.47,11.132,78.964,31.161
		l11.129-74.629h140.712L401.066,360.98h49.357l33.432-224.145h448.299l-54.602,237.146h-1.154
		c5.963,11.319,7.14,23.307,7.14,31.023C883.538,456.644,853.919,485.094,800.133,485.094"/>
	<path fill="#1A1A1A" d="M799.84,485.388c-29.832,0-46.834-9.953-56.446-22.33l-3.353,22.33H431.612l0.005-0.083H241.682
		l2.871-19.272c-19.963,12.582-47.098,19.355-80.175,19.355H47.745l39.405-264.083h110.305c36.252,0,63.47,11.132,78.964,31.161
		l11.129-74.629h140.712l-27.486,183.437h49.358l33.432-224.145h448.299l-54.601,237.146h-1.155
		c5.963,11.318,7.139,23.307,7.139,31.023C883.244,456.937,853.626,485.388,799.84,485.388"/>
	<path fill="#1A1A1A" d="M799.547,485.681c-29.832,0-46.833-9.953-56.446-22.33l-3.353,22.33H431.319l0.005-0.083H241.389
		l2.87-19.273c-19.963,12.583-47.098,19.356-80.175,19.356H47.452l39.404-264.083h110.305c36.252,0,63.47,11.132,78.964,31.16
		l11.129-74.628h140.713L400.48,361.566h49.357l33.432-224.145h448.299l-54.601,237.146h-1.155
		c5.964,11.318,7.139,23.307,7.139,31.023C882.951,457.229,853.334,485.681,799.547,485.681"/>
	<path fill="#1A1A1A" d="M799.254,485.974c-29.833,0-46.834-9.954-56.447-22.331l-3.352,22.331H431.026l0.005-0.083H241.096
		l2.871-19.272c-19.963,12.582-47.099,19.355-80.176,19.355H47.159l39.404-264.083h110.305c36.252,0,63.47,11.132,78.964,31.161
		l11.129-74.629h140.713l-27.487,183.437h49.357l33.432-224.145h448.299l-54.602,237.146h-1.154
		c5.964,11.318,7.14,23.307,7.14,31.023C882.659,457.522,853.041,485.974,799.254,485.974"/>
	<path fill="#1A1A1A" d="M798.961,486.266c-29.833,0-46.833-9.952-56.446-22.33l-3.353,22.33H430.733l0.006-0.082H240.804
		l2.87-19.273c-19.963,12.582-47.098,19.355-80.176,19.355H46.866L86.27,222.184h110.306c36.251,0,63.469,11.133,78.963,31.161
		l11.129-74.628H427.38l-27.486,183.437h49.358l33.432-224.145h448.299l-54.601,237.146h-1.155
		c5.963,11.319,7.139,23.308,7.139,31.024C882.365,457.815,852.748,486.266,798.961,486.266"/>
	<path fill="#1A1A1A" d="M798.668,486.559c-29.833,0-46.833-9.953-56.446-22.329l-3.353,22.329H430.44l0.006-0.082H240.51
		l2.871-19.273c-19.963,12.582-47.098,19.355-80.176,19.355H46.573l39.404-264.082h110.306c36.251,0,63.47,11.132,78.963,31.161
		l11.128-74.628h140.712l-27.486,183.437h49.357L482.391,138.3h448.299l-54.601,237.147h-1.155
		c5.964,11.318,7.14,23.307,7.14,31.023C882.073,458.108,852.455,486.559,798.668,486.559"/>
	<path fill="#1A1A1A" d="M798.375,486.852c-29.832,0-46.834-9.953-56.446-22.33l-3.353,22.33H430.147l0.006-0.082H240.217
		l2.871-19.272c-19.963,12.581-47.098,19.354-80.176,19.354H46.28L85.685,222.77H195.99c36.251,0,63.47,11.132,78.963,31.16
		l11.129-74.628h140.713l-27.486,183.437h49.357l33.432-224.145h448.299L875.795,375.74h-1.154
		c5.964,11.318,7.14,23.307,7.14,31.023C881.78,458.4,852.162,486.852,798.375,486.852"/>
	<path fill="#1A1A1A" d="M798.082,487.145c-29.832,0-46.833-9.953-56.446-22.33l-3.353,22.33H429.854l0.006-0.082H239.925
		l2.87-19.273c-19.963,12.583-47.098,19.355-80.176,19.355H45.987l39.404-264.082h110.306c36.251,0,63.469,11.132,78.963,31.161
		l11.129-74.628h140.713l-27.486,183.437h49.357l33.432-224.146h448.298l-54.601,237.146h-1.155
		c5.964,11.319,7.14,23.308,7.14,31.024C881.487,458.693,851.869,487.145,798.082,487.145"/>
	<path fill="#1A1A1A" d="M797.789,487.438c-29.832,0-46.833-9.953-56.446-22.33l-3.353,22.33H429.562l0.006-0.082H239.632
		l2.87-19.273c-19.963,12.582-47.098,19.355-80.176,19.355H45.694l39.404-264.082h110.306c36.251,0,63.47,11.132,78.963,31.16
		l11.128-74.628h140.713l-27.486,183.436h49.357l33.432-224.145h448.299L875.21,376.325h-1.155
		c5.964,11.319,7.14,23.307,7.14,31.023C881.194,458.986,851.576,487.438,797.789,487.438"/>
	<path fill="#1A1A1A" d="M797.496,487.73c-29.832,0-46.833-9.953-56.446-22.33l-3.353,22.33H429.269l0.006-0.083H239.338
		l2.871-19.272c-19.963,12.582-47.098,19.355-80.176,19.355H45.401l39.404-264.082h110.306c36.251,0,63.47,11.132,78.964,31.161
		l11.129-74.628h140.712L398.43,363.616h49.357l33.432-224.144h448.299l-54.601,237.147h-1.155
		c5.964,11.318,7.14,23.306,7.14,31.022C880.901,459.279,851.283,487.73,797.496,487.73"/>
	<path fill="#1A1A1A" d="M797.203,488.023c-29.832,0-46.833-9.953-56.446-22.33l-3.353,22.33H428.976l0.006-0.083H239.046
		l2.87-19.272c-19.963,12.582-47.098,19.355-80.176,19.355H45.108l39.404-264.082h110.306c36.251,0,63.47,11.132,78.963,31.16
		l11.129-74.628h140.712l-27.486,183.436h49.357l33.433-224.145h448.298l-54.601,237.146h-1.155
		c5.964,11.319,7.14,23.307,7.14,31.024C880.608,459.572,850.99,488.023,797.203,488.023"/>
	<path fill="#1A1A1A" d="M796.91,488.316c-29.832,0-46.833-9.953-56.446-22.33l-3.353,22.33H428.683l0.006-0.083H238.753
		l2.87-19.272c-19.963,12.582-47.098,19.355-80.175,19.355H44.815L84.22,224.234h110.306c36.252,0,63.47,11.132,78.963,31.16
		l11.129-74.628H425.33l-27.486,183.436h49.357l33.432-224.145h448.298l-54.601,237.146h-1.155
		c5.964,11.319,7.14,23.307,7.14,31.023C880.315,459.865,850.697,488.316,796.91,488.316"/>
	<path fill="#1A1A1A" d="M796.617,488.609c-29.832,0-46.833-9.953-56.446-22.33l-3.353,22.33H428.39l0.006-0.083H238.46l2.87-19.272
		c-19.963,12.582-47.098,19.355-80.175,19.355H44.522l39.404-264.082h110.306c36.251,0,63.47,11.132,78.964,31.16l11.129-74.628
		h140.712l-27.486,183.436h49.357l33.432-224.145h448.298l-54.601,237.146h-1.155c5.964,11.319,7.14,23.307,7.14,31.023
		C880.022,460.158,850.404,488.609,796.617,488.609"/>
	<path fill="#1A1A1A" d="M796.324,488.902c-29.832,0-46.833-9.953-56.446-22.33l-3.353,22.33H428.097l0.006-0.083H238.167
		l2.87-19.272c-19.963,12.582-47.098,19.355-80.175,19.355H44.229L83.634,224.82h110.306c36.252,0,63.47,11.132,78.963,31.16
		l11.129-74.628h140.712l-27.486,183.436h49.357l33.433-224.145h448.298l-54.6,237.146h-1.156c5.964,11.319,7.14,23.307,7.14,31.023
		C879.729,460.451,850.111,488.902,796.324,488.902"/>
	<path fill="#1A1A1A" d="M796.031,489.195c-29.832,0-46.833-9.953-56.445-22.33l-3.354,22.33H427.804l0.006-0.083H237.874
		l2.87-19.272c-19.962,12.582-47.098,19.355-80.175,19.355H43.937l39.404-264.082h110.305c36.251,0,63.47,11.132,78.964,31.16
		l11.129-74.628h140.712l-27.486,183.436h49.358l33.432-224.145h448.298l-54.601,237.146h-1.155
		c5.965,11.319,7.141,23.307,7.141,31.023C879.438,460.744,849.818,489.195,796.031,489.195"/>
	<path fill="#1A1A1A" d="M795.738,489.488c-29.832,0-46.832-9.953-56.446-22.33l-3.353,22.33H427.511l0.006-0.083H237.581
		l2.87-19.272c-19.963,12.582-47.098,19.355-80.175,19.355H43.644l39.405-264.082h110.305c36.252,0,63.47,11.132,78.964,31.16
		l11.129-74.629h140.712l-27.486,183.437h49.357l33.432-224.145H927.76l-54.601,237.146h-1.155
		c5.964,11.319,7.14,23.307,7.14,31.023C879.144,461.037,849.525,489.488,795.738,489.488"/>
	<path fill="#1A1A1A" d="M795.445,489.781c-29.832,0-46.832-9.953-56.446-22.33l-3.353,22.33H427.218l0.006-0.083H237.288
		l2.87-19.272c-19.962,12.582-47.098,19.355-80.175,19.355H43.351l39.405-264.082h110.305c36.252,0,63.47,11.132,78.964,31.16
		l11.129-74.628h140.712l-27.486,183.436h49.358l33.432-224.145h448.298l-54.6,237.146h-1.156c5.964,11.319,7.14,23.307,7.14,31.023
		C878.851,461.33,849.232,489.781,795.445,489.781"/>
	<path fill="#1A1A1A" d="M795.152,490.074c-29.832,0-46.833-9.953-56.445-22.33l-3.354,22.33H426.925l0.006-0.083H236.996
		l2.87-19.272c-19.963,12.582-47.098,19.355-80.175,19.355H43.058l39.404-264.083h110.305c36.252,0,63.47,11.132,78.964,31.161
		l11.129-74.628h140.712L396.086,365.96h49.357l33.432-224.145h448.298l-54.6,237.146h-1.156
		c5.965,11.319,7.141,23.307,7.141,31.023C878.559,461.623,848.939,490.074,795.152,490.074"/>
	<path fill="#1A1A1A" d="M794.859,490.367c-29.832,0-46.832-9.953-56.445-22.33l-3.354,22.33H426.632l0.006-0.083H236.702
		l2.871-19.272c-19.963,12.582-47.098,19.355-80.175,19.355H42.765l39.404-264.083h110.306c36.252,0,63.47,11.132,78.964,31.161
		l11.129-74.628H423.28l-27.486,183.436h49.357l33.432-224.145h448.299L872.28,379.255h-1.154
		c5.964,11.319,7.139,23.307,7.139,31.023C878.265,461.916,848.646,490.367,794.859,490.367"/>
	<path fill="#1A1A1A" d="M794.566,490.66c-29.832,0-46.832-9.953-56.446-22.33l-3.352,22.33H426.34l0.005-0.083H236.409
		l2.871-19.272c-19.962,12.582-47.098,19.355-80.175,19.355H42.472l39.405-264.083h110.305c36.251,0,63.469,11.132,78.963,31.161
		l11.129-74.629h140.712L395.5,366.546h49.357l33.432-224.145h448.299l-54.601,237.146h-1.155
		c5.963,11.319,7.139,23.307,7.139,31.023C877.972,462.209,848.354,490.66,794.566,490.66"/>
	<path fill="#1A1A1A" d="M794.274,490.953c-29.833,0-46.834-9.953-56.446-22.33l-3.354,22.33H426.047l0.005-0.084H236.117
		l2.87-19.271c-19.963,12.582-47.098,19.355-80.175,19.355H42.179l39.404-264.083h110.306c36.251,0,63.469,11.132,78.963,31.16
		l11.129-74.628h140.713l-27.487,183.437h49.358l33.432-224.145h448.299L871.695,379.84h-1.156
		c5.965,11.32,7.141,23.308,7.141,31.024C877.68,462.501,848.061,490.953,794.274,490.953"/>
	<path fill="#1A1A1A" d="M793.981,491.246c-29.833,0-46.833-9.953-56.446-22.33l-3.353,22.33H425.754l0.005-0.084H235.824
		l2.87-19.271c-19.962,12.582-47.098,19.355-80.175,19.355H41.887l39.404-264.083h110.306c36.251,0,63.47,11.132,78.963,31.161
		l11.129-74.629h140.713l-27.487,183.437h49.357l33.432-224.145h448.299l-54.601,237.147h-1.156
		c5.965,11.319,7.141,23.306,7.141,31.023C877.387,462.794,847.769,491.246,793.981,491.246"/>
	<path fill="#1A1A1A" d="M793.688,491.539c-29.833,0-46.833-9.953-56.446-22.331l-3.354,22.331H425.461l0.006-0.084H235.531
		l2.87-19.271c-19.963,12.581-47.098,19.355-80.175,19.355H41.594l39.404-264.083h110.306c36.251,0,63.47,11.132,78.964,31.16
		l11.128-74.628h140.712l-27.486,183.436h49.357l33.432-224.144H925.71l-54.601,237.147h-1.156
		c5.965,11.318,7.141,23.306,7.141,31.022C877.094,463.088,847.476,491.539,793.688,491.539"/>
	<path fill="#1A1A1A" d="M793.396,491.832c-29.833,0-46.833-9.953-56.446-22.33l-3.353,22.33H425.168l0.006-0.084H235.238
		l2.87-19.271c-19.962,12.581-47.098,19.355-80.175,19.355H41.3L80.705,227.75H191.01c36.251,0,63.47,11.132,78.963,31.16
		l11.129-74.628h140.712l-27.486,183.436h49.357l33.432-224.144h448.299l-54.601,237.146h-1.156
		c5.965,11.319,7.141,23.307,7.141,31.023C876.801,463.381,847.183,491.832,793.396,491.832"/>
	<path fill="#1A1A1A" d="M793.103,492.124c-29.832,0-46.833-9.953-56.446-22.329l-3.353,22.329H424.875l0.006-0.083H234.945
		l2.87-19.272c-19.962,12.582-47.098,19.355-80.175,19.355H41.008l39.404-264.082h110.305c36.251,0,63.47,11.132,78.963,31.161
		l11.129-74.628h140.713L394.036,368.01h49.357l33.432-224.145h448.299l-54.601,237.146h-1.155
		c5.964,11.319,7.14,23.307,7.14,31.024C876.508,463.674,846.89,492.124,793.103,492.124"/>
	<path fill="#1A1A1A" d="M792.81,492.417c-29.832,0-46.833-9.952-56.446-22.33l-3.353,22.33H424.582l0.006-0.083H234.652
		l2.87-19.271c-19.962,12.582-47.098,19.354-80.175,19.354H40.715l39.404-264.082h110.305c36.252,0,63.47,11.132,78.964,31.161
		l11.128-74.629h140.713l-27.486,183.437h49.357l33.432-224.145h448.299L870.23,381.305h-1.155
		c5.964,11.319,7.14,23.307,7.14,31.023C876.215,463.967,846.597,492.417,792.81,492.417"/>
	<path fill="#1A1A1A" d="M792.517,492.71c-29.832,0-46.833-9.953-56.446-22.33l-3.353,22.33H424.289l0.006-0.083H234.359
		l2.87-19.272c-19.963,12.582-47.098,19.355-80.175,19.355H40.421l39.405-264.082h110.306c36.251,0,63.469,11.132,78.963,31.16
		l11.128-74.628h140.713L393.45,368.596h49.357l33.432-224.145h448.298l-54.601,237.146h-1.155
		c5.964,11.319,7.14,23.307,7.14,31.023C875.922,464.26,846.304,492.71,792.517,492.71"/>
	<path fill="#1A1A1A" d="M792.224,493.004c-29.832,0-46.833-9.954-56.446-22.331l-3.353,22.331H423.996l0.006-0.084H234.066
		l2.871-19.272c-19.963,12.582-47.098,19.356-80.175,19.356H40.129l39.404-264.083h110.306c36.251,0,63.47,11.132,78.963,31.161
		l11.128-74.628h140.713l-27.486,183.436h49.357l33.432-224.145h448.298l-54.601,237.146h-1.155
		c5.964,11.319,7.14,23.307,7.14,31.023C875.629,464.552,846.011,493.004,792.224,493.004"/>
	<path fill="#1A1A1A" d="M791.931,493.296c-29.832,0-46.833-9.953-56.446-22.33l-3.353,22.33H423.703l0.006-0.083H233.773
		l2.87-19.272c-19.963,12.582-47.098,19.355-80.175,19.355H39.836L79.24,229.214h110.306c36.251,0,63.47,11.132,78.963,31.16
		l11.128-74.628h140.713l-27.486,183.436h49.357l33.432-224.144h448.299l-54.601,237.146h-1.155
		c5.964,11.319,7.14,23.307,7.14,31.023C875.336,464.845,845.718,493.296,791.931,493.296"/>
	<path fill="#1A1A1A" d="M791.638,493.589c-29.832,0-46.833-9.953-56.446-22.33l-3.353,22.33H423.41l0.006-0.083H233.48l2.87-19.272
		c-19.963,12.582-47.098,19.355-80.175,19.355H39.543l39.404-264.082h110.306c36.251,0,63.47,11.132,78.964,31.16l11.129-74.628
		h140.712l-27.486,183.436h49.357l33.432-224.145h448.298l-54.601,237.146h-1.155c5.964,11.319,7.14,23.307,7.14,31.023
		C875.043,465.138,845.425,493.589,791.638,493.589"/>
	<path fill="#1A1A1A" d="M791.345,493.882c-29.832,0-46.833-9.953-56.446-22.33l-3.353,22.33H423.117l0.006-0.083H233.188
		l2.87-19.272c-19.963,12.582-47.098,19.355-80.175,19.355H39.25L78.654,229.8H188.96c36.251,0,63.47,11.132,78.963,31.16
		l11.129-74.628h140.712l-27.486,183.436h49.357l33.432-224.145h448.298L868.766,382.77h-1.155
		c5.964,11.319,7.14,23.307,7.14,31.023C874.75,465.431,845.132,493.882,791.345,493.882"/>
	<path fill="#1A1A1A" d="M791.052,494.175c-29.832,0-46.833-9.953-56.446-22.33l-3.353,22.33H422.824l0.006-0.083H232.895
		l2.87-19.272c-19.963,12.582-47.098,19.355-80.175,19.355H38.957l39.404-264.082h110.306c36.252,0,63.47,11.132,78.963,31.16
		l11.129-74.628h140.712l-27.486,183.436h49.357l33.432-224.145h448.298l-54.601,237.146h-1.155
		c5.964,11.319,7.14,23.307,7.14,31.023C874.457,465.724,844.839,494.175,791.052,494.175"/>
	<path fill="#1A1A1A" d="M790.759,494.468c-29.832,0-46.833-9.953-56.446-22.33l-3.353,22.33H422.531l0.006-0.083H232.602
		l2.87-19.272c-19.962,12.582-47.098,19.355-80.175,19.355H38.664l39.405-264.082h110.305c36.251,0,63.47,11.132,78.964,31.16
		l11.129-74.628h140.712l-27.486,183.436h49.357l33.432-224.145H922.78L868.18,383.355h-1.155c5.964,11.319,7.14,23.307,7.14,31.023
		C874.164,466.017,844.546,494.468,790.759,494.468"/>
	<path fill="#1A1A1A" d="M790.467,494.761c-29.833,0-46.834-9.953-56.447-22.33l-3.353,22.33H422.238l0.006-0.083H232.309
		l2.87-19.272c-19.963,12.582-47.097,19.355-80.175,19.355H38.372l39.404-264.082h110.306c36.251,0,63.469,11.132,78.963,31.16
		l11.129-74.628h140.712l-27.487,183.436h49.357l33.433-224.145h448.298l-54.601,237.146h-1.155
		c5.964,11.319,7.14,23.307,7.14,31.023C873.871,466.31,844.253,494.761,790.467,494.761"/>
	<path fill="#1A1A1A" d="M790.173,495.054c-29.832,0-46.833-9.953-56.446-22.33l-3.352,22.33h-308.43l0.006-0.083H232.016
		l2.87-19.272c-19.962,12.582-47.097,19.355-80.175,19.355H38.078l39.405-264.082h110.306c36.251,0,63.469,11.132,78.963,31.16
		l11.129-74.629h140.712l-27.486,183.437h49.357l33.432-224.145h448.298l-54.601,237.147h-1.155
		c5.964,11.319,7.14,23.307,7.14,31.023C873.578,466.603,843.96,495.054,790.173,495.054"/>
	<path fill="#1A1A1A" d="M789.88,495.347c-29.832,0-46.833-9.953-56.446-22.33l-3.353,22.33H421.652l0.006-0.083H231.723
		l2.87-19.272c-19.963,12.582-47.097,19.355-80.175,19.355H37.786l39.404-264.083h110.306c36.251,0,63.47,11.132,78.963,31.16
		l11.129-74.628H418.3l-27.486,183.437h49.357l33.432-224.145h448.298l-54.601,237.146h-1.155
		c5.964,11.319,7.141,23.307,7.141,31.023C873.286,466.896,843.667,495.347,789.88,495.347"/>
	<path fill="#1A1A1A" d="M789.587,495.639c-29.832,0-46.832-9.953-56.446-22.33l-3.352,22.33h-308.43l0.006-0.082H231.43
		l2.87-19.272c-19.962,12.582-47.097,19.354-80.175,19.354H37.493l39.404-264.082h110.306c36.251,0,63.47,11.132,78.963,31.161
		l11.129-74.629h140.712l-27.486,183.437h49.357l33.433-224.145h448.298l-54.6,237.147h-1.155
		c5.964,11.318,7.139,23.307,7.139,31.023C872.992,467.188,843.375,495.639,789.587,495.639"/>
	<path fill="#1A1A1A" d="M789.295,495.933c-29.833,0-46.834-9.953-56.447-22.33l-3.353,22.33H421.067l0.006-0.083H231.137
		l2.87-19.272c-19.962,12.581-47.097,19.355-80.175,19.355H37.2L76.604,231.85H186.91c36.251,0,63.47,11.132,78.963,31.16
		l11.129-74.628h140.712l-27.486,183.437h49.357l33.432-224.145h448.299L866.715,384.82h-1.154
		c5.963,11.318,7.139,23.307,7.139,31.023C872.699,467.481,843.082,495.933,789.295,495.933"/>
	<path fill="#1A1A1A" d="M789.002,496.226c-29.832,0-46.834-9.953-56.446-22.33l-3.353,22.33H420.774l0.006-0.083H230.844
		l2.87-19.272c-19.962,12.581-47.097,19.355-80.175,19.355H36.907l39.404-264.083h110.306c36.251,0,63.469,11.132,78.963,31.16
		l11.129-74.628h140.713L389.935,372.11h49.357l33.432-224.144h448.299l-54.602,237.146h-1.154
		c5.963,11.319,7.14,23.308,7.14,31.024C872.407,467.774,842.789,496.226,789.002,496.226"/>
	<path fill="#1A1A1A" d="M788.709,496.519c-29.832,0-46.833-9.954-56.447-22.331l-3.352,22.331H420.481l0.006-0.083H230.551
		l2.87-19.273c-19.962,12.582-47.097,19.356-80.175,19.356H36.614l39.404-264.083h110.306c36.251,0,63.47,11.132,78.963,31.16
		l11.129-74.628h140.712l-27.486,183.436H439l33.432-224.144H920.73L866.13,385.406h-1.155c5.964,11.318,7.139,23.307,7.139,31.022
		C872.113,468.067,842.496,496.519,788.709,496.519"/>
	<path fill="#1A1A1A" d="M788.416,496.811c-29.832,0-46.834-9.952-56.446-22.33l-3.353,22.33H420.188l0.006-0.083H230.259
		l2.87-19.271c-19.962,12.582-47.097,19.354-80.175,19.354H36.321l39.404-264.082h110.306c36.251,0,63.469,11.132,78.963,31.16
		l11.129-74.628h140.712L389.35,372.697h49.357l33.432-224.145h448.299l-54.601,237.147h-1.155
		c5.964,11.318,7.14,23.307,7.14,31.022C871.821,468.36,842.203,496.811,788.416,496.811"/>
	<path fill="#1A1A1A" d="M788.123,497.104c-29.832,0-46.833-9.953-56.446-22.329l-3.353,22.329H419.895l0.006-0.083H229.965
		l2.87-19.272c-19.963,12.582-47.097,19.355-80.175,19.355H36.028l39.405-264.082h110.306c36.251,0,63.469,11.132,78.963,31.16
		l11.129-74.628h140.712L389.057,372.99h49.357l33.432-224.145h448.299l-54.601,237.146h-1.155
		c5.963,11.319,7.14,23.308,7.14,31.024C871.528,468.652,841.91,497.104,788.123,497.104"/>
	<path fill="#1A1A1A" d="M787.83,497.396c-29.832,0-46.833-9.953-56.446-22.33l-3.353,22.33H419.602l0.006-0.083H229.672
		l2.871-19.272c-19.963,12.582-47.098,19.355-80.175,19.355H35.735L75.14,233.314h110.306c36.251,0,63.47,11.132,78.963,31.161
		l11.129-74.628H416.25l-27.487,183.436h49.357l33.433-224.144h448.298l-54.601,237.146h-1.155
		c5.964,11.319,7.14,23.307,7.14,31.024C871.235,468.945,841.617,497.396,787.83,497.396"/>
	<path fill="#1A1A1A" d="M787.537,497.689c-29.832,0-46.833-9.953-56.446-22.33l-3.353,22.33H419.309l0.006-0.083H229.38
		l2.87-19.272c-19.963,12.582-47.098,19.355-80.175,19.355H35.442l39.404-264.082h110.306c36.251,0,63.47,11.132,78.963,31.16
		l11.129-74.628h140.712l-27.486,183.436h49.357l33.432-224.145h448.299l-54.601,237.146h-1.155
		c5.964,11.319,7.14,23.307,7.14,31.023C870.942,469.238,841.324,497.689,787.537,497.689"/>
	<path fill="#1A1A1A" d="M787.244,497.982c-29.832,0-46.833-9.953-56.446-22.33l-3.353,22.33H419.017l0.006-0.083H229.087
		l2.87-19.272c-19.963,12.582-47.098,19.355-80.175,19.355H35.149L74.554,233.9h110.306c36.251,0,63.469,11.132,78.963,31.161
		l11.129-74.629h140.712l-27.486,183.436h49.357l33.432-224.144h448.299L864.665,386.87h-1.155
		c5.964,11.319,7.14,23.307,7.14,31.023C870.649,469.531,841.031,497.982,787.244,497.982"/>
	<path fill="#1A1A1A" d="M786.951,498.275c-29.832,0-46.833-9.953-56.446-22.33l-3.353,22.33H418.724l0.006-0.083H228.793
		l2.871-19.272c-19.963,12.582-47.098,19.355-80.175,19.355H34.856l39.404-264.082h110.306c36.251,0,63.47,11.132,78.963,31.16
		l11.129-74.628h140.712l-27.486,183.436h49.357l33.432-224.145h448.298l-54.601,237.146h-1.155
		c5.964,11.319,7.14,23.307,7.14,31.023C870.356,469.824,840.738,498.275,786.951,498.275"/>
	<path fill="#1A1A1A" d="M786.658,498.568c-29.832,0-46.833-9.953-56.446-22.33l-3.353,22.33H418.431l0.006-0.083H228.501
		l2.87-19.272c-19.963,12.582-47.098,19.355-80.175,19.355H34.563l39.404-264.082h110.306c36.251,0,63.47,11.132,78.963,31.16
		l11.129-74.628h140.712l-27.486,183.436h49.357l33.432-224.145H918.68l-54.601,237.146h-1.155
		c5.964,11.319,7.14,23.307,7.14,31.023C870.063,470.117,840.445,498.568,786.658,498.568"/>
	<path fill="#1A1A1A" d="M786.365,498.861c-29.832,0-46.833-9.953-56.446-22.33l-3.353,22.33H418.138l0.006-0.083H228.208
		l2.87-19.272c-19.963,12.582-47.098,19.355-80.175,19.355H34.271l39.404-264.082H183.98c36.251,0,63.47,11.132,78.963,31.16
		l11.129-74.628h140.712l-27.486,183.436h49.357l33.432-224.145h448.298l-54.601,237.146h-1.155
		c5.964,11.319,7.14,23.307,7.14,31.023C869.771,470.41,840.152,498.861,786.365,498.861"/>
	<path fill="#1A1A1A" d="M786.072,499.154c-29.832,0-46.833-9.953-56.446-22.33l-3.353,22.33H417.845l0.006-0.083H227.915
		l2.87-19.272c-19.962,12.582-47.098,19.355-80.175,19.355H33.978l39.404-264.082h110.306c36.251,0,63.47,11.132,78.963,31.16
		l11.129-74.629h140.712L387.006,375.04h49.358l33.432-224.145h448.298l-54.601,237.146h-1.155
		c5.964,11.319,7.14,23.307,7.14,31.023C869.478,470.703,839.859,499.154,786.072,499.154"/>
	<path fill="#1A1A1A" d="M785.779,499.447c-29.832,0-46.833-9.953-56.446-22.33l-3.353,22.33H417.552l0.006-0.083H227.623
		l2.87-19.272c-19.963,12.582-47.098,19.355-80.175,19.355H33.685l39.404-264.082h110.306c36.251,0,63.47,11.132,78.964,31.16
		l11.128-74.628h140.712l-27.486,183.436h49.357l33.432-224.145h448.298L863.2,388.335h-1.155c5.964,11.319,7.14,23.307,7.14,31.023
		C869.185,470.996,839.566,499.447,785.779,499.447"/>
	<path fill="#1A1A1A" d="M785.486,499.74c-29.832,0-46.833-9.953-56.446-22.33l-3.353,22.33H417.259l0.006-0.083H227.329
		l2.871-19.272c-19.963,12.582-47.098,19.355-80.176,19.355H33.392l39.405-264.082h110.305c36.251,0,63.47,11.132,78.963,31.16
		l11.129-74.628h140.712L386.42,375.626h49.357l33.432-224.145h448.298l-54.601,237.147h-1.155
		c5.964,11.319,7.14,23.307,7.14,31.023C868.892,471.289,839.273,499.74,785.486,499.74"/>
	<path fill="#1A1A1A" d="M785.193,500.033c-29.832,0-46.833-9.953-56.446-22.33l-3.353,22.33H416.966l0.006-0.083H227.036
		l2.871-19.272c-19.963,12.582-47.098,19.355-80.176,19.355H33.099l39.404-264.082h110.305c36.252,0,63.47,11.132,78.963,31.16
		l11.129-74.628h140.712l-27.486,183.436h49.358l33.432-224.145h448.298l-54.601,237.146h-1.155
		c5.964,11.319,7.14,23.307,7.14,31.023C868.599,471.582,838.98,500.033,785.193,500.033"/>
	<path fill="#1A1A1A" d="M784.9,500.326c-29.832,0-46.833-9.953-56.446-22.33l-3.353,22.33H416.673l0.006-0.083H226.744l2.87-19.272
		c-19.963,12.582-47.098,19.355-80.175,19.355H32.806L72.21,236.244h110.306c36.251,0,63.47,11.132,78.964,31.161l11.129-74.628
		H413.32l-27.486,183.436h49.357l33.433-224.145h448.298l-54.601,237.146h-1.155c5.964,11.319,7.14,23.307,7.14,31.023
		C868.306,471.875,838.688,500.326,784.9,500.326"/>
	<path fill="#1A1A1A" d="M784.607,500.619c-29.832,0-46.832-9.953-56.446-22.33l-3.353,22.33H416.38l0.005-0.083H226.451
		l2.87-19.272c-19.963,12.582-47.098,19.355-80.175,19.355H32.513l39.404-264.083h110.306c36.252,0,63.47,11.132,78.964,31.16
		l11.129-74.628h140.712l-27.486,183.437h49.357l33.432-224.145h448.298l-54.601,237.147h-1.155
		c5.964,11.319,7.14,23.307,7.14,31.022C868.013,472.168,838.395,500.619,784.607,500.619"/>
	<path fill="#1A1A1A" d="M784.314,500.912c-29.832,0-46.833-9.953-56.445-22.33l-3.354,22.33H416.087l0.005-0.083H226.157
		l2.871-19.272c-19.963,12.582-47.098,19.355-80.175,19.355H32.22L71.625,236.83H181.93c36.251,0,63.47,11.132,78.964,31.161
		l11.129-74.629h140.712l-27.486,183.436h49.357l33.432-224.144h448.298L861.735,389.8h-1.155c5.964,11.319,7.14,23.307,7.14,31.023
		C867.72,472.461,838.103,500.912,784.314,500.912"/>
	<path fill="#1A1A1A" d="M784.021,501.205c-29.831,0-46.833-9.953-56.446-22.33l-3.353,22.33H415.794l0.006-0.083H225.865
		l2.87-19.272c-19.963,12.582-47.098,19.355-80.175,19.355H31.927l39.404-264.083h110.306c36.251,0,63.47,11.132,78.963,31.16
		l11.129-74.628h140.712l-27.486,183.437h49.357l33.432-224.145h448.298l-54.6,237.147h-1.156
		c5.965,11.319,7.141,23.307,7.141,31.023C867.428,472.753,837.81,501.205,784.021,501.205"/>
	<path fill="#1A1A1A" d="M783.729,501.497c-29.832,0-46.833-9.952-56.447-22.329l-3.352,22.329H415.501l0.006-0.082H225.572
		l2.87-19.273c-19.963,12.582-47.098,19.355-80.175,19.355H31.634l39.404-264.082h110.306c36.251,0,63.469,11.132,78.963,31.16
		l11.129-74.628h140.713l-27.487,183.437h49.357l33.432-224.145h448.299l-54.602,237.146h-1.155
		c5.964,11.319,7.141,23.307,7.141,31.024C867.135,473.046,837.517,501.497,783.729,501.497"/>
	<path fill="#1A1A1A" d="M783.437,501.79c-29.832,0-46.834-9.953-56.446-22.33l-3.354,22.33H415.208l0.006-0.082H225.279
		l2.87-19.272c-19.963,12.581-47.098,19.354-80.175,19.354H31.341l39.404-264.082h110.306c36.251,0,63.47,11.132,78.963,31.16
		l11.129-74.628h140.712L384.37,377.677h49.358l33.432-224.145h448.299l-54.601,237.146h-1.156
		c5.965,11.319,7.14,23.307,7.14,31.023C866.841,473.339,837.224,501.79,783.437,501.79"/>
	<path fill="#1A1A1A" d="M783.144,502.084c-29.832,0-46.833-9.953-56.446-22.331l-3.353,22.331H414.916l0.006-0.083H224.986
		l2.87-19.273c-19.962,12.582-47.098,19.356-80.175,19.356H31.048l39.404-264.083h110.306c36.251,0,63.47,11.132,78.963,31.16
		l11.129-74.629h140.712l-27.486,183.436h49.357l33.432-224.144h448.299l-54.601,237.147h-1.156
		c5.964,11.318,7.141,23.306,7.141,31.022C866.549,473.632,836.931,502.084,783.144,502.084"/>
	<path fill="#1A1A1A" d="M782.85,502.377c-29.832,0-46.832-9.954-56.446-22.33l-3.353,22.33H414.623l0.006-0.083H224.693
		l2.87-19.273c-19.963,12.583-47.098,19.356-80.175,19.356H30.756L70.16,238.294h110.305c36.251,0,63.47,11.132,78.964,31.16
		l11.128-74.629H411.27l-27.486,183.436h49.357l33.432-224.144h448.299l-54.601,237.146h-1.155
		c5.964,11.319,7.14,23.307,7.14,31.023C866.256,473.925,836.637,502.377,782.85,502.377"/>
	<path fill="#1A1A1A" d="M782.558,502.669c-29.832,0-46.833-9.953-56.446-22.33l-3.353,22.33H414.33l0.006-0.083H224.4l2.871-19.272
		c-19.963,12.582-47.098,19.355-80.176,19.355H30.462l39.405-264.082h110.305c36.251,0,63.47,11.132,78.963,31.16l11.129-74.628
		h140.712l-27.487,183.436h49.358L466.28,154.41h448.299l-54.601,237.146h-1.155c5.964,11.319,7.14,23.308,7.14,31.023
		C865.963,474.218,836.345,502.669,782.558,502.669"/>
	<path fill="#1A1A1A" d="M782.265,502.963c-29.832,0-46.833-9.954-56.447-22.33l-3.352,22.33H414.037l0.006-0.084H224.107
		l2.87-19.272c-19.963,12.583-47.098,19.356-80.175,19.356H30.17L69.574,238.88h110.306c36.252,0,63.47,11.132,78.963,31.16
		l11.129-74.628h140.712l-27.486,183.436h49.357l33.433-224.144h448.298L859.686,391.85h-1.155
		c5.964,11.319,7.14,23.307,7.14,31.023C865.67,474.511,836.052,502.963,782.265,502.963"/>
	<path fill="#1A1A1A" d="M781.972,503.255c-29.832,0-46.834-9.953-56.447-22.33l-3.352,22.33H413.744l0.006-0.083H223.814
		l2.87-19.272c-19.963,12.582-47.098,19.355-80.175,19.355H29.877l39.404-264.082h110.306c36.251,0,63.469,11.132,78.963,31.161
		l11.129-74.628h140.712l-27.486,183.436h49.357l33.432-224.145h448.298l-54.602,237.146h-1.154
		c5.964,11.319,7.14,23.307,7.14,31.023C865.377,474.804,835.759,503.255,781.972,503.255"/>
	<path fill="#1A1A1A" d="M781.679,503.548c-29.832,0-46.833-9.953-56.446-22.33l-3.354,22.33H413.451l0.006-0.083H223.521
		l2.871-19.272c-19.963,12.582-47.098,19.355-80.175,19.355H29.584l39.404-264.082h110.306c36.251,0,63.469,11.132,78.963,31.16
		l11.129-74.628h140.712l-27.486,183.436h49.358l33.432-224.145H913.7L859.1,392.436h-1.155c5.964,11.319,7.14,23.307,7.14,31.023
		C865.084,475.097,835.466,503.548,781.679,503.548"/>
	<path fill="#1A1A1A" d="M781.386,503.841c-29.832,0-46.833-9.953-56.446-22.33l-3.353,22.33H413.158l0.006-0.083H223.229
		l2.87-19.272c-19.963,12.582-47.098,19.355-80.175,19.355H29.291l39.404-264.082h110.306c36.251,0,63.47,11.132,78.963,31.161
		l11.129-74.629h140.712l-27.486,183.436h49.357l33.432-224.145h448.298l-54.601,237.146h-1.155
		c5.964,11.319,7.14,23.307,7.14,31.023C864.791,475.39,835.173,503.841,781.386,503.841"/>
	<path fill="#1A1A1A" d="M781.093,504.134c-29.832,0-46.833-9.953-56.446-22.33l-3.353,22.33H412.865l0.006-0.083H222.936
		l2.87-19.272c-19.963,12.582-47.098,19.355-80.175,19.355H28.998l39.404-264.082h110.306c36.251,0,63.47,11.132,78.963,31.16
		l11.129-74.628h140.712L382.026,380.02h49.357l33.432-224.145h448.298l-54.601,237.146h-1.155
		c5.964,11.319,7.14,23.307,7.14,31.023C864.498,475.683,834.88,504.134,781.093,504.134"/>
</g>
<g>
	<polygon fill="#FFFFFF" points="944.635,118.779 826.22,118.779 812.914,312.383 900.059,312.383 	"/>
	<path fill="#FFFFFF" d="M854.607,325.914c-40.595,0-61.445,18.406-61.445,58.108c0,27.495,16.423,39.473,46.801,39.473
		c40.807,0,61.65-18.406,61.65-58.334C901.613,337.886,885.423,325.914,854.607,325.914z"/>
</g>
<g>
	<path fill="#FCB11A" d="M277.158,311.915c20.034-10.754,32.256-27.531,32.256-52.936c0-34.203-21.827-56.039-71.851-56.039h-91.531
		l-32.908,220.555h91.388c65.476,0,97.086-27.692,97.086-70.044C301.598,336.022,292.473,320.389,277.158,311.915z M207.927,364.693
		h-12.212l4.067-27.049h12.228c8.792,0,12.701,2.778,12.701,10.43C224.71,360.614,219.661,364.693,207.927,364.693z
		 M220.631,287.162h-13.347l3.909-25.42h13.347c6.199,0,8.643,4.889,8.643,10.26C233.183,279.987,228.777,287.162,220.631,287.162z"
		/>
	<polygon fill="#FCB11A" points="695.942,118.779 679.966,224.55 638.323,224.55 654.073,118.779 542.457,118.779 496.988,423.495 
		608.393,423.495 623.907,319.969 665.782,319.969 650.247,423.495 761.425,423.495 807.111,118.779 	"/>
	<polygon fill="#FCB11A" points="443.117,159.484 346.43,159.484 307.053,423.424 479.768,423.424 491.853,342.908 415.631,342.908 
			"/>
</g>
</svg>
